0
SECTION
2
HEADER
9
$INSUNITS
70
4
0
ENDSEC
0
SECTION
2
TABLES
0
TABLE
2
LTYPE
0
LTYPE
72
65
70
0
2
CONTINUOUS
3
______
73
0
40
0
0
LTYPE
72
65
70
0
2
DASHED
3
_ _ _ 
73
2
40
7.5
49
5
49
-2.5
0
LTYPE
72
65
70
0
2
DOTTED
3
. . . 
73
2
40
1.5
49
0.5
49
-1
0
ENDTAB
0
TABLE
2
LAYER
0
ENDTAB
0
ENDSEC
0
SECTION
2
ENTITIES
0
LINE
8
0
6
CONTINUOUS
10
15
20
-93.7714285
11
15
21
-31
0
LINE
8
0
6
CONTINUOUS
10
20
20
-26
11
32.1886117
21
-26
0
LINE
8
0
6
CONTINUOUS
10
33.7697507
20
-25.7434164
11
50.8794833
21
-20.0401722
0
LINE
8
0
6
CONTINUOUS
10
51.1224028
20
-19.9659992
11
68.343322
21
-15.1824106
0
LINE
8
0
6
CONTINUOUS
10
69.6815415
20
-15
11
90.3184585
21
-15
0
LINE
8
0
6
CONTINUOUS
10
91.656678
20
-15.1824106
11
108.7449155
21
-19.9291432
0
LINE
8
0
6
CONTINUOUS
10
109.26114
20
-20.0435233
11
126.5918175
21
-22.9319696
0
LINE
8
0
6
CONTINUOUS
10
127.4138125
20
-23
11
150.6584775
21
-23
0
LINE
8
0
6
CONTINUOUS
10
155.6581315
20
-27.9411805
11
155.999654
21
-56.97059
0
LINE
8
0
6
CONTINUOUS
10
156
20
-57.0294095
11
156
21
-77.956199
0
LINE
8
0
6
CONTINUOUS
10
155.9992325
20
-78.0438
11
155.0568459
21
-131.8241809
0
LINE
8
0
6
CONTINUOUS
10
153.1359208
20
-135.6766337
11
142.4068941
21
-144.0590681
0
LINE
8
0
6
CONTINUOUS
10
135.3885329
20
-143.1973217
11
125.3070544
21
-130.2936176
0
LINE
8
0
6
CONTINUOUS
10
124.42814
20
-129.4185181
11
111.1402765
21
-119.1296704
0
LINE
8
0
6
CONTINUOUS
10
109.9123587
20
-118.4312712
11
94.1035658
21
-112.2012144
0
LINE
8
0
6
CONTINUOUS
10
93.3124608
20
-111.9628269
11
76.0255094
21
-108.2789206
0
LINE
8
0
6
CONTINUOUS
10
75.8135059
20
-108.2385044
11
19.169887
21
-98.7020382
0
ARC
8
0
6
CONTINUOUS
10
20
20
-31
40
5
50
90
51
180
0
ARC
8
0
6
CONTINUOUS
10
32.1886117
20
-21
40
5
50
270
51
288.4349506
0
ARC
8
0
6
CONTINUOUS
10
52.4606223
20
-24.7835887
40
5
50
105.5241131
51
108.4349506
0
ARC
8
0
6
CONTINUOUS
10
69.6815415
20
-20
40
5
50
90
51
105.5241131
0
ARC
8
0
6
CONTINUOUS
10
90.3184585
20
-20
40
5
50
74.4758869
51
90
0
ARC
8
0
6
CONTINUOUS
10
110.083135
20
-15.1115538
40
5
50
254.4758869
51
260.5376769
0
ARC
8
0
6
CONTINUOUS
10
127.4138125
20
-18
40
5
50
260.5376769
51
270
0
ARC
8
0
6
CONTINUOUS
10
150.6584775
20
-28
40
5
50
0.6740374
51
90
0
ARC
8
0
6
CONTINUOUS
10
151
20
-57.0294095
40
5
50
0
51
0.6740374
0
ARC
8
0
6
CONTINUOUS
10
151
20
-77.956199
40
5
50
358.9961151
51
0
0
ARC
8
0
6
CONTINUOUS
10
150.0576134
20
-131.7365799
40
5
50
307.9999995
51
358.9961151
0
ARC
8
0
6
CONTINUOUS
10
139.3285867
20
-140.1190143
40
5
50
217.9999995
51
307.9999995
0
ARC
8
0
6
CONTINUOUS
10
121.3670006
20
-133.3719249
40
5
50
37.9999995
51
52.2492322
0
ARC
8
0
6
CONTINUOUS
10
108.0791372
20
-123.0830772
40
5
50
52.2492322
51
68.4911892
0
ARC
8
0
6
CONTINUOUS
10
92.2703443
20
-116.8530204
40
5
50
68.4911892
51
77.9700302
0
ARC
8
0
6
CONTINUOUS
10
74.9833929
20
-113.1691142
40
5
50
77.9700302
51
80.443356
0
ARC
8
0
6
CONTINUOUS
10
20
20
-93.7714285
40
5
50
180
51
260.443356
0
ENDSEC
0
EOF