0
SECTION
2
HEADER
9
$INSUNITS
70
4
0
ENDSEC
0
SECTION
2
TABLES
0
TABLE
2
LTYPE
0
LTYPE
72
65
70
0
2
CONTINUOUS
3
______
73
0
40
0
0
LTYPE
72
65
70
0
2
DASHED
3
_ _ _ 
73
2
40
7.5
49
5
49
-2.5
0
LTYPE
72
65
70
0
2
DOTTED
3
. . . 
73
2
40
1.5
49
0.5
49
-1
0
ENDTAB
0
TABLE
2
LAYER
0
ENDTAB
0
ENDSEC
0
SECTION
2
ENTITIES
0
LINE
8
0
6
CONTINUOUS
10
237
20
-93.7714285
11
237
21
-31
0
LINE
8
0
6
CONTINUOUS
10
232
20
-26
11
219.8113883
21
-26
0
LINE
8
0
6
CONTINUOUS
10
218.2302493
20
-25.7434164
11
201.1205167
21
-20.0401722
0
LINE
8
0
6
CONTINUOUS
10
200.8775972
20
-19.9659992
11
183.656678
21
-15.1824106
0
LINE
8
0
6
CONTINUOUS
10
182.3184585
20
-15
11
161.6815415
21
-15
0
LINE
8
0
6
CONTINUOUS
10
160.343322
20
-15.1824106
11
143.2550845
21
-19.9291432
0
LINE
8
0
6
CONTINUOUS
10
142.73886
20
-20.0435233
11
125.4081825
21
-22.9319696
0
LINE
8
0
6
CONTINUOUS
10
124.5861875
20
-23
11
101.3547521
21
-23
0
LINE
8
0
6
CONTINUOUS
10
96.3549587
20
-27.9545475
11
96.0002066
21
-66.9772742
0
LINE
8
0
6
CONTINUOUS
10
96
20
-67.0227267
11
96
21
-87.9467168
0
LINE
8
0
6
CONTINUOUS
10
96.0011354
20
-88.0532679
11
96.9343639
21
-131.8359758
0
LINE
8
0
6
CONTINUOUS
10
98.8549211
20
-135.6694786
11
109.5931059
21
-144.0590681
0
LINE
8
0
6
CONTINUOUS
10
116.6114671
20
-143.1973217
11
126.6929456
21
-130.2936176
0
LINE
8
0
6
CONTINUOUS
10
127.57186
20
-129.4185181
11
140.8597235
21
-119.1296704
0
LINE
8
0
6
CONTINUOUS
10
142.0876413
20
-118.4312712
11
157.8964342
21
-112.2012144
0
LINE
8
0
6
CONTINUOUS
10
158.6875392
20
-111.9628269
11
175.9744906
21
-108.2789206
0
LINE
8
0
6
CONTINUOUS
10
176.1864941
20
-108.2385044
11
232.830113
21
-98.7020382
0
ARC
8
0
6
CONTINUOUS
10
232
20
-31
40
5
50
0
51
90
0
ARC
8
0
6
CONTINUOUS
10
219.8113883
20
-21
40
5
50
251.5650494
51
270
0
ARC
8
0
6
CONTINUOUS
10
199.5393777
20
-24.7835887
40
5
50
71.5650494
51
74.4758869
0
ARC
8
0
6
CONTINUOUS
10
182.3184585
20
-20
40
5
50
74.4758869
51
90
0
ARC
8
0
6
CONTINUOUS
10
161.6815415
20
-20
40
5
50
90
51
105.5241131
0
ARC
8
0
6
CONTINUOUS
10
141.916865
20
-15.1115537
40
5
50
279.4623231
51
285.5241131
0
ARC
8
0
6
CONTINUOUS
10
124.5861875
20
-18
40
5
50
270
51
279.4623231
0
ARC
8
0
6
CONTINUOUS
10
101.3547521
20
-28
40
5
50
90
51
179.4791456
0
ARC
8
0
6
CONTINUOUS
10
101
20
-67.0227267
40
5
50
179.4791456
51
180
0
ARC
8
0
6
CONTINUOUS
10
101
20
-87.9467168
40
5
50
180
51
181.221077
0
ARC
8
0
6
CONTINUOUS
10
101.9332285
20
-131.7294248
40
5
50
181.221077
51
232.0000005
0
ARC
8
0
6
CONTINUOUS
10
112.6714133
20
-140.1190143
40
5
50
232.0000005
51
322.0000005
0
ARC
8
0
6
CONTINUOUS
10
130.6329994
20
-133.3719249
40
5
50
127.7507678
51
142.0000005
0
ARC
8
0
6
CONTINUOUS
10
143.9208628
20
-123.0830772
40
5
50
111.5088108
51
127.7507678
0
ARC
8
0
6
CONTINUOUS
10
159.7296557
20
-116.8530204
40
5
50
102.0299698
51
111.5088108
0
ARC
8
0
6
CONTINUOUS
10
177.0166071
20
-113.1691142
40
5
50
99.556644
51
102.0299698
0
ARC
8
0
6
CONTINUOUS
10
232
20
-93.7714285
40
5
50
279.556644
51
0
0
ENDSEC
0
EOF