0
SECTION
2
HEADER
9
$INSUNITS
70
4
0
ENDSEC
0
SECTION
2
TABLES
0
TABLE
2
LTYPE
0
LTYPE
72
65
70
0
2
CONTINUOUS
3
______
73
0
40
0
0
LTYPE
72
65
70
0
2
DASHED
3
_ _ _ 
73
2
40
7.5
49
5
49
-2.5
0
LTYPE
72
65
70
0
2
DOTTED
3
. . . 
73
2
40
1.5
49
0.5
49
-1
0
ENDTAB
0
TABLE
2
LAYER
0
ENDTAB
0
ENDSEC
0
SECTION
2
ENTITIES
0
LINE
8
0
6
CONTINUOUS
10
15
20
-93.7714285
11
15
21
-31
0
LINE
8
0
6
CONTINUOUS
10
20
20
-26
11
32.1886117
21
-26
0
LINE
8
0
6
CONTINUOUS
10
33.7697507
20
-25.7434164
11
50.8794833
21
-20.0401722
0
LINE
8
0
6
CONTINUOUS
10
51.1224028
20
-19.9659992
11
68.343322
21
-15.1824106
0
LINE
8
0
6
CONTINUOUS
10
69.6815415
20
-15
11
90.3184585
21
-15
0
LINE
8
0
6
CONTINUOUS
10
91.656678
20
-15.1824106
11
108.7449155
21
-19.9291432
0
LINE
8
0
6
CONTINUOUS
10
109.26114
20
-20.0435233
11
126.5918175
21
-22.9319696
0
LINE
8
0
6
CONTINUOUS
10
127.4138125
20
-23
11
150.6452479
21
-23
0
LINE
8
0
6
CONTINUOUS
10
155.6450413
20
-27.9545475
11
155.9997934
21
-66.9772742
0
LINE
8
0
6
CONTINUOUS
10
156
20
-67.0227267
11
156
21
-87.9467168
0
LINE
8
0
6
CONTINUOUS
10
155.9988646
20
-88.0532679
11
155.0656361
21
-131.8359758
0
LINE
8
0
6
CONTINUOUS
10
153.1450789
20
-135.6694786
11
142.4068941
21
-144.0590681
0
LINE
8
0
6
CONTINUOUS
10
135.3885329
20
-143.1973217
11
125.3070544
21
-130.2936176
0
LINE
8
0
6
CONTINUOUS
10
124.42814
20
-129.4185181
11
111.1402765
21
-119.1296704
0
LINE
8
0
6
CONTINUOUS
10
109.9123587
20
-118.4312712
11
94.1035658
21
-112.2012144
0
LINE
8
0
6
CONTINUOUS
10
93.3124608
20
-111.9628269
11
76.0255094
21
-108.2789206
0
LINE
8
0
6
CONTINUOUS
10
75.8135059
20
-108.2385044
11
19.169887
21
-98.7020382
0
ARC
8
0
6
CONTINUOUS
10
20
20
-31
40
5
50
90
51
180
0
ARC
8
0
6
CONTINUOUS
10
32.1886117
20
-21
40
5
50
270
51
288.4349506
0
ARC
8
0
6
CONTINUOUS
10
52.4606223
20
-24.7835887
40
5
50
105.5241131
51
108.4349506
0
ARC
8
0
6
CONTINUOUS
10
69.6815415
20
-20
40
5
50
90
51
105.5241131
0
ARC
8
0
6
CONTINUOUS
10
90.3184585
20
-20
40
5
50
74.4758869
51
90
0
ARC
8
0
6
CONTINUOUS
10
110.083135
20
-15.1115538
40
5
50
254.4758869
51
260.5376769
0
ARC
8
0
6
CONTINUOUS
10
127.4138125
20
-18
40
5
50
260.5376769
51
270
0
ARC
8
0
6
CONTINUOUS
10
150.6452479
20
-28
40
5
50
0.5208544
51
90
0
ARC
8
0
6
CONTINUOUS
10
151
20
-67.0227267
40
5
50
0
51
0.5208544
0
ARC
8
0
6
CONTINUOUS
10
151
20
-87.9467168
40
5
50
358.778923
51
0
0
ARC
8
0
6
CONTINUOUS
10
150.0667715
20
-131.7294248
40
5
50
307.9999995
51
358.778923
0
ARC
8
0
6
CONTINUOUS
10
139.3285867
20
-140.1190143
40
5
50
217.9999995
51
307.9999995
0
ARC
8
0
6
CONTINUOUS
10
121.3670006
20
-133.3719249
40
5
50
37.9999995
51
52.2492322
0
ARC
8
0
6
CONTINUOUS
10
108.0791372
20
-123.0830772
40
5
50
52.2492322
51
68.4911892
0
ARC
8
0
6
CONTINUOUS
10
92.2703443
20
-116.8530204
40
5
50
68.4911892
51
77.9700302
0
ARC
8
0
6
CONTINUOUS
10
74.9833929
20
-113.1691142
40
5
50
77.9700302
51
80.443356
0
ARC
8
0
6
CONTINUOUS
10
20
20
-93.7714285
40
5
50
180
51
260.443356
0
LINE
8
0
6
CONTINUOUS
10
17.25
20
-95.75
11
34.75
21
-95.75
0
LINE
8
0
6
CONTINUOUS
10
34.75
20
-95.75
11
34.75
21
-79.25
0
LINE
8
0
6
CONTINUOUS
10
34.75
20
-79.25
11
17.25
21
-79.25
0
LINE
8
0
6
CONTINUOUS
10
17.25
20
-79.25
11
17.25
21
-95.75
0
LINE
8
0
6
CONTINUOUS
10
17.25
20
-78.75
11
34.75
21
-78.75
0
LINE
8
0
6
CONTINUOUS
10
34.75
20
-78.75
11
34.75
21
-62.25
0
LINE
8
0
6
CONTINUOUS
10
34.75
20
-62.25
11
17.25
21
-62.25
0
LINE
8
0
6
CONTINUOUS
10
17.25
20
-62.25
11
17.25
21
-78.75
0
LINE
8
0
6
CONTINUOUS
10
17.25
20
-61.75
11
34.75
21
-61.75
0
LINE
8
0
6
CONTINUOUS
10
34.75
20
-61.75
11
34.75
21
-45.25
0
LINE
8
0
6
CONTINUOUS
10
34.75
20
-45.25
11
17.25
21
-45.25
0
LINE
8
0
6
CONTINUOUS
10
17.25
20
-45.25
11
17.25
21
-61.75
0
LINE
8
0
6
CONTINUOUS
10
17.25
20
-44.75
11
34.75
21
-44.75
0
LINE
8
0
6
CONTINUOUS
10
34.75
20
-44.75
11
34.75
21
-28.25
0
LINE
8
0
6
CONTINUOUS
10
34.75
20
-28.25
11
17.25
21
-28.25
0
LINE
8
0
6
CONTINUOUS
10
17.25
20
-28.25
11
17.25
21
-44.75
0
LINE
8
0
6
CONTINUOUS
10
35.25
20
-95.75
11
52.75
21
-95.75
0
LINE
8
0
6
CONTINUOUS
10
52.75
20
-95.75
11
52.75
21
-79.25
0
LINE
8
0
6
CONTINUOUS
10
52.75
20
-79.25
11
35.25
21
-79.25
0
LINE
8
0
6
CONTINUOUS
10
35.25
20
-79.25
11
35.25
21
-95.75
0
LINE
8
0
6
CONTINUOUS
10
35.25
20
-78.75
11
52.75
21
-78.75
0
LINE
8
0
6
CONTINUOUS
10
52.75
20
-78.75
11
52.75
21
-62.25
0
LINE
8
0
6
CONTINUOUS
10
52.75
20
-62.25
11
35.25
21
-62.25
0
LINE
8
0
6
CONTINUOUS
10
35.25
20
-62.25
11
35.25
21
-78.75
0
LINE
8
0
6
CONTINUOUS
10
35.25
20
-61.75
11
52.75
21
-61.75
0
LINE
8
0
6
CONTINUOUS
10
52.75
20
-61.75
11
52.75
21
-45.25
0
LINE
8
0
6
CONTINUOUS
10
52.75
20
-45.25
11
35.25
21
-45.25
0
LINE
8
0
6
CONTINUOUS
10
35.25
20
-45.25
11
35.25
21
-61.75
0
LINE
8
0
6
CONTINUOUS
10
35.25
20
-44.75
11
52.75
21
-44.75
0
LINE
8
0
6
CONTINUOUS
10
52.75
20
-44.75
11
52.75
21
-28.25
0
LINE
8
0
6
CONTINUOUS
10
52.75
20
-28.25
11
35.25
21
-28.25
0
LINE
8
0
6
CONTINUOUS
10
35.25
20
-28.25
11
35.25
21
-44.75
0
LINE
8
0
6
CONTINUOUS
10
53.25
20
-89.75
11
70.75
21
-89.75
0
LINE
8
0
6
CONTINUOUS
10
70.75
20
-89.75
11
70.75
21
-73.25
0
LINE
8
0
6
CONTINUOUS
10
70.75
20
-73.25
11
53.25
21
-73.25
0
LINE
8
0
6
CONTINUOUS
10
53.25
20
-73.25
11
53.25
21
-89.75
0
LINE
8
0
6
CONTINUOUS
10
53.25
20
-72.75
11
70.75
21
-72.75
0
LINE
8
0
6
CONTINUOUS
10
70.75
20
-72.75
11
70.75
21
-56.25
0
LINE
8
0
6
CONTINUOUS
10
70.75
20
-56.25
11
53.25
21
-56.25
0
LINE
8
0
6
CONTINUOUS
10
53.25
20
-56.25
11
53.25
21
-72.75
0
LINE
8
0
6
CONTINUOUS
10
53.25
20
-55.75
11
70.75
21
-55.75
0
LINE
8
0
6
CONTINUOUS
10
70.75
20
-55.75
11
70.75
21
-39.25
0
LINE
8
0
6
CONTINUOUS
10
70.75
20
-39.25
11
53.25
21
-39.25
0
LINE
8
0
6
CONTINUOUS
10
53.25
20
-39.25
11
53.25
21
-55.75
0
LINE
8
0
6
CONTINUOUS
10
53.25
20
-38.75
11
70.75
21
-38.75
0
LINE
8
0
6
CONTINUOUS
10
70.75
20
-38.75
11
70.75
21
-22.25
0
LINE
8
0
6
CONTINUOUS
10
70.75
20
-22.25
11
53.25
21
-22.25
0
LINE
8
0
6
CONTINUOUS
10
53.25
20
-22.25
11
53.25
21
-38.75
0
LINE
8
0
6
CONTINUOUS
10
71.25
20
-84.75
11
88.75
21
-84.75
0
LINE
8
0
6
CONTINUOUS
10
88.75
20
-84.75
11
88.75
21
-68.25
0
LINE
8
0
6
CONTINUOUS
10
88.75
20
-68.25
11
71.25
21
-68.25
0
LINE
8
0
6
CONTINUOUS
10
71.25
20
-68.25
11
71.25
21
-84.75
0
LINE
8
0
6
CONTINUOUS
10
71.25
20
-67.75
11
88.75
21
-67.75
0
LINE
8
0
6
CONTINUOUS
10
88.75
20
-67.75
11
88.75
21
-51.25
0
LINE
8
0
6
CONTINUOUS
10
88.75
20
-51.25
11
71.25
21
-51.25
0
LINE
8
0
6
CONTINUOUS
10
71.25
20
-51.25
11
71.25
21
-67.75
0
LINE
8
0
6
CONTINUOUS
10
71.25
20
-50.75
11
88.75
21
-50.75
0
LINE
8
0
6
CONTINUOUS
10
88.75
20
-50.75
11
88.75
21
-34.25
0
LINE
8
0
6
CONTINUOUS
10
88.75
20
-34.25
11
71.25
21
-34.25
0
LINE
8
0
6
CONTINUOUS
10
71.25
20
-34.25
11
71.25
21
-50.75
0
LINE
8
0
6
CONTINUOUS
10
71.25
20
-33.75
11
88.75
21
-33.75
0
LINE
8
0
6
CONTINUOUS
10
88.75
20
-33.75
11
88.75
21
-17.25
0
LINE
8
0
6
CONTINUOUS
10
88.75
20
-17.25
11
71.25
21
-17.25
0
LINE
8
0
6
CONTINUOUS
10
71.25
20
-17.25
11
71.25
21
-33.75
0
LINE
8
0
6
CONTINUOUS
10
89.25
20
-89.75
11
106.75
21
-89.75
0
LINE
8
0
6
CONTINUOUS
10
106.75
20
-89.75
11
106.75
21
-73.25
0
LINE
8
0
6
CONTINUOUS
10
106.75
20
-73.25
11
89.25
21
-73.25
0
LINE
8
0
6
CONTINUOUS
10
89.25
20
-73.25
11
89.25
21
-89.75
0
LINE
8
0
6
CONTINUOUS
10
89.25
20
-72.75
11
106.75
21
-72.75
0
LINE
8
0
6
CONTINUOUS
10
106.75
20
-72.75
11
106.75
21
-56.25
0
LINE
8
0
6
CONTINUOUS
10
106.75
20
-56.25
11
89.25
21
-56.25
0
LINE
8
0
6
CONTINUOUS
10
89.25
20
-56.25
11
89.25
21
-72.75
0
LINE
8
0
6
CONTINUOUS
10
89.25
20
-55.75
11
106.75
21
-55.75
0
LINE
8
0
6
CONTINUOUS
10
106.75
20
-55.75
11
106.75
21
-39.25
0
LINE
8
0
6
CONTINUOUS
10
106.75
20
-39.25
11
89.25
21
-39.25
0
LINE
8
0
6
CONTINUOUS
10
89.25
20
-39.25
11
89.25
21
-55.75
0
LINE
8
0
6
CONTINUOUS
10
89.25
20
-38.75
11
106.75
21
-38.75
0
LINE
8
0
6
CONTINUOUS
10
106.75
20
-38.75
11
106.75
21
-22.25
0
LINE
8
0
6
CONTINUOUS
10
106.75
20
-22.25
11
89.25
21
-22.25
0
LINE
8
0
6
CONTINUOUS
10
89.25
20
-22.25
11
89.25
21
-38.75
0
LINE
8
0
6
CONTINUOUS
10
107.25
20
-92.75
11
124.75
21
-92.75
0
LINE
8
0
6
CONTINUOUS
10
124.75
20
-92.75
11
124.75
21
-76.25
0
LINE
8
0
6
CONTINUOUS
10
124.75
20
-76.25
11
107.25
21
-76.25
0
LINE
8
0
6
CONTINUOUS
10
107.25
20
-76.25
11
107.25
21
-92.75
0
LINE
8
0
6
CONTINUOUS
10
107.25
20
-75.75
11
124.75
21
-75.75
0
LINE
8
0
6
CONTINUOUS
10
124.75
20
-75.75
11
124.75
21
-59.25
0
LINE
8
0
6
CONTINUOUS
10
124.75
20
-59.25
11
107.25
21
-59.25
0
LINE
8
0
6
CONTINUOUS
10
107.25
20
-59.25
11
107.25
21
-75.75
0
LINE
8
0
6
CONTINUOUS
10
107.25
20
-58.75
11
124.75
21
-58.75
0
LINE
8
0
6
CONTINUOUS
10
124.75
20
-58.75
11
124.75
21
-42.25
0
LINE
8
0
6
CONTINUOUS
10
124.75
20
-42.25
11
107.25
21
-42.25
0
LINE
8
0
6
CONTINUOUS
10
107.25
20
-42.25
11
107.25
21
-58.75
0
LINE
8
0
6
CONTINUOUS
10
107.25
20
-41.75
11
124.75
21
-41.75
0
LINE
8
0
6
CONTINUOUS
10
124.75
20
-41.75
11
124.75
21
-25.25
0
LINE
8
0
6
CONTINUOUS
10
124.75
20
-25.25
11
107.25
21
-25.25
0
LINE
8
0
6
CONTINUOUS
10
107.25
20
-25.25
11
107.25
21
-41.75
0
LINE
8
0
6
CONTINUOUS
10
125.25
20
-85.75
11
142.75
21
-85.75
0
LINE
8
0
6
CONTINUOUS
10
142.75
20
-85.75
11
142.75
21
-69.25
0
LINE
8
0
6
CONTINUOUS
10
142.75
20
-69.25
11
125.25
21
-69.25
0
LINE
8
0
6
CONTINUOUS
10
125.25
20
-69.25
11
125.25
21
-85.75
0
LINE
8
0
6
CONTINUOUS
10
78.6184157
20
-106.5702313
11
95.6698919
21
-110.5068748
0
LINE
8
0
6
CONTINUOUS
10
95.6698919
20
-110.5068748
11
99.3815843
21
-94.4297687
0
LINE
8
0
6
CONTINUOUS
10
99.3815843
20
-94.4297687
11
82.3301081
21
-90.4931252
0
LINE
8
0
6
CONTINUOUS
10
82.3301081
20
-90.4931252
11
78.6184157
21
-106.5702313
0
LINE
8
0
6
CONTINUOUS
10
96.6681763
20
-110.8572355
11
112.7770113
21
-117.6950302
0
LINE
8
0
6
CONTINUOUS
10
112.7770113
20
-117.6950302
11
119.2240749
21
-102.5067001
0
LINE
8
0
6
CONTINUOUS
10
119.2240749
20
-102.5067001
11
103.1152399
21
-95.6689054
0
LINE
8
0
6
CONTINUOUS
10
103.1152399
20
-95.6689054
11
96.6681763
21
-110.8572355
0
LINE
8
0
6
CONTINUOUS
10
113.7406956
20
-118.3602545
11
127.3407499
21
-129.3733613
0
LINE
8
0
6
CONTINUOUS
10
127.3407499
20
-129.3733613
11
137.7245364
21
-116.5504529
0
LINE
8
0
6
CONTINUOUS
10
137.7245364
20
-116.5504529
11
124.1244821
21
-105.5373461
0
LINE
8
0
6
CONTINUOUS
10
124.1244821
20
-105.5373461
11
113.7406956
21
-118.3602545
0
LINE
8
0
6
CONTINUOUS
10
128.0805504
20
-130.1889248
11
138.8546262
21
-143.979113
0
LINE
8
0
6
CONTINUOUS
10
138.8546262
20
-143.979113
11
151.8568036
21
-133.8206986
0
LINE
8
0
6
CONTINUOUS
10
151.8568036
20
-133.8206986
11
141.0827278
21
-120.0305104
0
LINE
8
0
6
CONTINUOUS
10
141.0827278
20
-120.0305104
11
128.0805504
21
-130.1889248
0
ENDSEC
0
EOF