0
SECTION
2
HEADER
9
$INSUNITS
70
4
0
ENDSEC
0
SECTION
2
TABLES
0
TABLE
2
LTYPE
0
LTYPE
72
65
70
0
2
CONTINUOUS
3
______
73
0
40
0
0
LTYPE
72
65
70
0
2
DASHED
3
_ _ _ 
73
2
40
7.5
49
5
49
-2.5
0
LTYPE
72
65
70
0
2
DOTTED
3
. . . 
73
2
40
1.5
49
0.5
49
-1
0
ENDTAB
0
TABLE
2
LAYER
0
ENDTAB
0
ENDSEC
0
SECTION
2
ENTITIES
0
LINE
8
0
6
CONTINUOUS
10
237
20
-93.7714285
11
237
21
-31
0
LINE
8
0
6
CONTINUOUS
10
232
20
-26
11
219.8113883
21
-26
0
LINE
8
0
6
CONTINUOUS
10
218.2302493
20
-25.7434164
11
201.1205167
21
-20.0401722
0
LINE
8
0
6
CONTINUOUS
10
200.8775972
20
-19.9659992
11
183.656678
21
-15.1824106
0
LINE
8
0
6
CONTINUOUS
10
182.3184585
20
-15
11
161.6815415
21
-15
0
LINE
8
0
6
CONTINUOUS
10
160.343322
20
-15.1824106
11
143.2550845
21
-19.9291432
0
LINE
8
0
6
CONTINUOUS
10
142.73886
20
-20.0435233
11
125.4081825
21
-22.9319696
0
LINE
8
0
6
CONTINUOUS
10
124.5861875
20
-23
11
106.75
21
-23
0
LINE
8
0
6
CONTINUOUS
10
96.1022727
20
-55.75
11
96.0977273
21
-56.25
0
LINE
8
0
6
CONTINUOUS
10
96.2568182
20
-38.75
11
96.2522727
21
-39.25
0
LINE
8
0
6
CONTINUOUS
10
96
20
-72.75
11
96
21
-73.25
0
LINE
8
0
6
CONTINUOUS
10
96.0373013
20
-89.75
11
96.1210054
21
-93.6770047
0
LINE
8
0
6
CONTINUOUS
10
96.4112847
20
-107.2955499
11
96.9343639
21
-131.8359758
0
LINE
8
0
6
CONTINUOUS
10
98.8549211
20
-135.6694786
11
109.5931059
21
-144.0590681
0
LINE
8
0
6
CONTINUOUS
10
116.6114671
20
-143.1973217
11
126.6929456
21
-130.2936176
0
LINE
8
0
6
CONTINUOUS
10
127.57186
20
-129.4185181
11
140.8597235
21
-119.1296704
0
LINE
8
0
6
CONTINUOUS
10
142.0876413
20
-118.4312712
11
157.8964342
21
-112.2012144
0
LINE
8
0
6
CONTINUOUS
10
158.6875392
20
-111.9628269
11
175.9744906
21
-108.2789206
0
LINE
8
0
6
CONTINUOUS
10
176.1864941
20
-108.2385044
11
232.830113
21
-98.7020382
0
ARC
8
0
6
CONTINUOUS
10
232
20
-31
40
5
50
0
51
90
0
ARC
8
0
6
CONTINUOUS
10
219.8113883
20
-21
40
5
50
251.5650494
51
270
0
ARC
8
0
6
CONTINUOUS
10
199.5393777
20
-24.7835887
40
5
50
71.5650494
51
74.4758869
0
ARC
8
0
6
CONTINUOUS
10
182.3184585
20
-20
40
5
50
74.4758869
51
90
0
ARC
8
0
6
CONTINUOUS
10
161.6815415
20
-20
40
5
50
90
51
105.5241131
0
ARC
8
0
6
CONTINUOUS
10
141.916865
20
-15.1115537
40
5
50
279.4623231
51
285.5241131
0
ARC
8
0
6
CONTINUOUS
10
124.5861875
20
-18
40
5
50
270
51
279.4623231
0
ARC
8
0
6
CONTINUOUS
10
101.9332285
20
-131.7294248
40
5
50
181.221077
51
232.0000005
0
ARC
8
0
6
CONTINUOUS
10
112.6714133
20
-140.1190143
40
5
50
232.0000005
51
322.0000005
0
ARC
8
0
6
CONTINUOUS
10
130.6329994
20
-133.3719249
40
5
50
127.7507678
51
142.0000005
0
ARC
8
0
6
CONTINUOUS
10
143.9208628
20
-123.0830772
40
5
50
111.5088108
51
127.7507678
0
ARC
8
0
6
CONTINUOUS
10
159.7296557
20
-116.8530204
40
5
50
102.0299698
51
111.5088108
0
ARC
8
0
6
CONTINUOUS
10
177.0166071
20
-113.1691142
40
5
50
99.556644
51
102.0299698
0
ARC
8
0
6
CONTINUOUS
10
232
20
-93.7714285
40
5
50
279.556644
51
0
0
LINE
8
0
6
CONTINUOUS
10
96.0373013
20
-89.75
11
106.75
21
-89.75
0
LINE
8
0
6
CONTINUOUS
10
106.75
20
-89.75
11
106.75
21
-73.25
0
LINE
8
0
6
CONTINUOUS
10
106.75
20
-73.25
11
96
21
-73.25
0
LINE
8
0
6
CONTINUOUS
10
96
20
-72.75
11
106.75
21
-72.75
0
LINE
8
0
6
CONTINUOUS
10
106.75
20
-72.75
11
106.75
21
-56.25
0
LINE
8
0
6
CONTINUOUS
10
106.75
20
-56.25
11
96.0977273
21
-56.25
0
LINE
8
0
6
CONTINUOUS
10
96.1022727
20
-55.75
11
106.75
21
-55.75
0
LINE
8
0
6
CONTINUOUS
10
106.75
20
-55.75
11
106.75
21
-39.25
0
LINE
8
0
6
CONTINUOUS
10
106.75
20
-39.25
11
96.2522727
21
-39.25
0
LINE
8
0
6
CONTINUOUS
10
96.2568182
20
-38.75
11
106.75
21
-38.75
0
LINE
8
0
6
CONTINUOUS
10
106.75
20
-38.75
11
106.75
21
-23
0
LINE
8
0
6
CONTINUOUS
10
107.25
20
-92.75
11
124.75
21
-92.75
0
LINE
8
0
6
CONTINUOUS
10
124.75
20
-92.75
11
124.75
21
-85.75
0
LINE
8
0
6
CONTINUOUS
10
109.25
20
-76.25
11
107.25
21
-76.25
0
LINE
8
0
6
CONTINUOUS
10
107.25
20
-76.25
11
107.25
21
-92.75
0
LINE
8
0
6
CONTINUOUS
10
107.25
20
-75.75
11
109.25
21
-75.75
0
LINE
8
0
6
CONTINUOUS
10
124.75
20
-69.25
11
124.75
21
-59.25
0
LINE
8
0
6
CONTINUOUS
10
124.75
20
-59.25
11
107.25
21
-59.25
0
LINE
8
0
6
CONTINUOUS
10
107.25
20
-59.25
11
107.25
21
-75.75
0
LINE
8
0
6
CONTINUOUS
10
107.25
20
-58.75
11
124.75
21
-58.75
0
LINE
8
0
6
CONTINUOUS
10
124.75
20
-58.75
11
124.75
21
-42.25
0
LINE
8
0
6
CONTINUOUS
10
124.75
20
-42.25
11
107.25
21
-42.25
0
LINE
8
0
6
CONTINUOUS
10
107.25
20
-42.25
11
107.25
21
-58.75
0
LINE
8
0
6
CONTINUOUS
10
107.25
20
-41.75
11
124.75
21
-41.75
0
LINE
8
0
6
CONTINUOUS
10
124.75
20
-41.75
11
124.75
21
-25.25
0
LINE
8
0
6
CONTINUOUS
10
124.75
20
-25.25
11
107.25
21
-25.25
0
LINE
8
0
6
CONTINUOUS
10
107.25
20
-25.25
11
107.25
21
-41.75
0
LINE
8
0
6
CONTINUOUS
10
124.75
20
-85.75
11
127.25
21
-85.75
0
LINE
8
0
6
CONTINUOUS
10
142.75
20
-76.25
11
142.75
21
-75.75
0
LINE
8
0
6
CONTINUOUS
10
124.75
20
-69.25
11
127.25
21
-69.25
0
LINE
8
0
6
CONTINUOUS
10
217.25
20
-95.75
11
234.75
21
-95.75
0
LINE
8
0
6
CONTINUOUS
10
234.75
20
-95.75
11
234.75
21
-79.25
0
LINE
8
0
6
CONTINUOUS
10
234.75
20
-79.25
11
217.25
21
-79.25
0
LINE
8
0
6
CONTINUOUS
10
217.25
20
-79.25
11
217.25
21
-95.75
0
LINE
8
0
6
CONTINUOUS
10
217.25
20
-78.75
11
234.75
21
-78.75
0
LINE
8
0
6
CONTINUOUS
10
234.75
20
-78.75
11
234.75
21
-62.25
0
LINE
8
0
6
CONTINUOUS
10
234.75
20
-62.25
11
217.25
21
-62.25
0
LINE
8
0
6
CONTINUOUS
10
217.25
20
-62.25
11
217.25
21
-78.75
0
LINE
8
0
6
CONTINUOUS
10
217.25
20
-61.75
11
234.75
21
-61.75
0
LINE
8
0
6
CONTINUOUS
10
234.75
20
-61.75
11
234.75
21
-45.25
0
LINE
8
0
6
CONTINUOUS
10
234.75
20
-45.25
11
217.25
21
-45.25
0
LINE
8
0
6
CONTINUOUS
10
217.25
20
-45.25
11
217.25
21
-61.75
0
LINE
8
0
6
CONTINUOUS
10
217.25
20
-44.75
11
234.75
21
-44.75
0
LINE
8
0
6
CONTINUOUS
10
234.75
20
-44.75
11
234.75
21
-28.25
0
LINE
8
0
6
CONTINUOUS
10
234.75
20
-28.25
11
217.25
21
-28.25
0
LINE
8
0
6
CONTINUOUS
10
217.25
20
-28.25
11
217.25
21
-44.75
0
LINE
8
0
6
CONTINUOUS
10
199.25
20
-95.75
11
216.75
21
-95.75
0
LINE
8
0
6
CONTINUOUS
10
216.75
20
-95.75
11
216.75
21
-79.25
0
LINE
8
0
6
CONTINUOUS
10
216.75
20
-79.25
11
199.25
21
-79.25
0
LINE
8
0
6
CONTINUOUS
10
199.25
20
-79.25
11
199.25
21
-95.75
0
LINE
8
0
6
CONTINUOUS
10
199.25
20
-78.75
11
216.75
21
-78.75
0
LINE
8
0
6
CONTINUOUS
10
216.75
20
-78.75
11
216.75
21
-62.25
0
LINE
8
0
6
CONTINUOUS
10
216.75
20
-62.25
11
199.25
21
-62.25
0
LINE
8
0
6
CONTINUOUS
10
199.25
20
-62.25
11
199.25
21
-78.75
0
LINE
8
0
6
CONTINUOUS
10
199.25
20
-61.75
11
216.75
21
-61.75
0
LINE
8
0
6
CONTINUOUS
10
216.75
20
-61.75
11
216.75
21
-45.25
0
LINE
8
0
6
CONTINUOUS
10
216.75
20
-45.25
11
199.25
21
-45.25
0
LINE
8
0
6
CONTINUOUS
10
199.25
20
-45.25
11
199.25
21
-61.75
0
LINE
8
0
6
CONTINUOUS
10
199.25
20
-44.75
11
216.75
21
-44.75
0
LINE
8
0
6
CONTINUOUS
10
216.75
20
-44.75
11
216.75
21
-28.25
0
LINE
8
0
6
CONTINUOUS
10
216.75
20
-28.25
11
199.25
21
-28.25
0
LINE
8
0
6
CONTINUOUS
10
199.25
20
-28.25
11
199.25
21
-44.75
0
LINE
8
0
6
CONTINUOUS
10
181.25
20
-89.75
11
198.75
21
-89.75
0
LINE
8
0
6
CONTINUOUS
10
198.75
20
-89.75
11
198.75
21
-73.25
0
LINE
8
0
6
CONTINUOUS
10
198.75
20
-73.25
11
181.25
21
-73.25
0
LINE
8
0
6
CONTINUOUS
10
181.25
20
-73.25
11
181.25
21
-89.75
0
LINE
8
0
6
CONTINUOUS
10
181.25
20
-72.75
11
198.75
21
-72.75
0
LINE
8
0
6
CONTINUOUS
10
198.75
20
-72.75
11
198.75
21
-56.25
0
LINE
8
0
6
CONTINUOUS
10
198.75
20
-56.25
11
181.25
21
-56.25
0
LINE
8
0
6
CONTINUOUS
10
181.25
20
-56.25
11
181.25
21
-72.75
0
LINE
8
0
6
CONTINUOUS
10
181.25
20
-55.75
11
198.75
21
-55.75
0
LINE
8
0
6
CONTINUOUS
10
198.75
20
-55.75
11
198.75
21
-39.25
0
LINE
8
0
6
CONTINUOUS
10
198.75
20
-39.25
11
181.25
21
-39.25
0
LINE
8
0
6
CONTINUOUS
10
181.25
20
-39.25
11
181.25
21
-55.75
0
LINE
8
0
6
CONTINUOUS
10
181.25
20
-38.75
11
198.75
21
-38.75
0
LINE
8
0
6
CONTINUOUS
10
198.75
20
-38.75
11
198.75
21
-22.25
0
LINE
8
0
6
CONTINUOUS
10
198.75
20
-22.25
11
181.25
21
-22.25
0
LINE
8
0
6
CONTINUOUS
10
181.25
20
-22.25
11
181.25
21
-38.75
0
LINE
8
0
6
CONTINUOUS
10
163.25
20
-84.75
11
180.75
21
-84.75
0
LINE
8
0
6
CONTINUOUS
10
180.75
20
-84.75
11
180.75
21
-68.25
0
LINE
8
0
6
CONTINUOUS
10
180.75
20
-68.25
11
163.25
21
-68.25
0
LINE
8
0
6
CONTINUOUS
10
163.25
20
-68.25
11
163.25
21
-84.75
0
LINE
8
0
6
CONTINUOUS
10
163.25
20
-67.75
11
180.75
21
-67.75
0
LINE
8
0
6
CONTINUOUS
10
180.75
20
-67.75
11
180.75
21
-51.25
0
LINE
8
0
6
CONTINUOUS
10
180.75
20
-51.25
11
163.25
21
-51.25
0
LINE
8
0
6
CONTINUOUS
10
163.25
20
-51.25
11
163.25
21
-67.75
0
LINE
8
0
6
CONTINUOUS
10
163.25
20
-50.75
11
180.75
21
-50.75
0
LINE
8
0
6
CONTINUOUS
10
180.75
20
-50.75
11
180.75
21
-34.25
0
LINE
8
0
6
CONTINUOUS
10
180.75
20
-34.25
11
163.25
21
-34.25
0
LINE
8
0
6
CONTINUOUS
10
163.25
20
-34.25
11
163.25
21
-50.75
0
LINE
8
0
6
CONTINUOUS
10
163.25
20
-33.75
11
180.75
21
-33.75
0
LINE
8
0
6
CONTINUOUS
10
180.75
20
-33.75
11
180.75
21
-17.25
0
LINE
8
0
6
CONTINUOUS
10
180.75
20
-17.25
11
163.25
21
-17.25
0
LINE
8
0
6
CONTINUOUS
10
163.25
20
-17.25
11
163.25
21
-33.75
0
LINE
8
0
6
CONTINUOUS
10
145.25
20
-89.75
11
162.75
21
-89.75
0
LINE
8
0
6
CONTINUOUS
10
162.75
20
-89.75
11
162.75
21
-73.25
0
LINE
8
0
6
CONTINUOUS
10
162.75
20
-73.25
11
145.25
21
-73.25
0
LINE
8
0
6
CONTINUOUS
10
145.25
20
-73.25
11
145.25
21
-89.75
0
LINE
8
0
6
CONTINUOUS
10
145.25
20
-72.75
11
162.75
21
-72.75
0
LINE
8
0
6
CONTINUOUS
10
162.75
20
-72.75
11
162.75
21
-56.25
0
LINE
8
0
6
CONTINUOUS
10
162.75
20
-56.25
11
145.25
21
-56.25
0
LINE
8
0
6
CONTINUOUS
10
145.25
20
-56.25
11
145.25
21
-72.75
0
LINE
8
0
6
CONTINUOUS
10
145.25
20
-55.75
11
162.75
21
-55.75
0
LINE
8
0
6
CONTINUOUS
10
162.75
20
-55.75
11
162.75
21
-39.25
0
LINE
8
0
6
CONTINUOUS
10
162.75
20
-39.25
11
145.25
21
-39.25
0
LINE
8
0
6
CONTINUOUS
10
145.25
20
-39.25
11
145.25
21
-55.75
0
LINE
8
0
6
CONTINUOUS
10
145.25
20
-38.75
11
162.75
21
-38.75
0
LINE
8
0
6
CONTINUOUS
10
162.75
20
-38.75
11
162.75
21
-22.25
0
LINE
8
0
6
CONTINUOUS
10
162.75
20
-22.25
11
145.25
21
-22.25
0
LINE
8
0
6
CONTINUOUS
10
145.25
20
-22.25
11
145.25
21
-38.75
0
LINE
8
0
6
CONTINUOUS
10
127.25
20
-92.75
11
144.75
21
-92.75
0
LINE
8
0
6
CONTINUOUS
10
144.75
20
-92.75
11
144.75
21
-76.25
0
LINE
8
0
6
CONTINUOUS
10
144.75
20
-76.25
11
142.75
21
-76.25
0
LINE
8
0
6
CONTINUOUS
10
127.25
20
-85.75
11
127.25
21
-92.75
0
LINE
8
0
6
CONTINUOUS
10
142.75
20
-75.75
11
144.75
21
-75.75
0
LINE
8
0
6
CONTINUOUS
10
144.75
20
-75.75
11
144.75
21
-59.25
0
LINE
8
0
6
CONTINUOUS
10
144.75
20
-59.25
11
127.25
21
-59.25
0
LINE
8
0
6
CONTINUOUS
10
127.25
20
-59.25
11
127.25
21
-69.25
0
LINE
8
0
6
CONTINUOUS
10
127.25
20
-58.75
11
144.75
21
-58.75
0
LINE
8
0
6
CONTINUOUS
10
144.75
20
-58.75
11
144.75
21
-42.25
0
LINE
8
0
6
CONTINUOUS
10
144.75
20
-42.25
11
127.25
21
-42.25
0
LINE
8
0
6
CONTINUOUS
10
127.25
20
-42.25
11
127.25
21
-58.75
0
LINE
8
0
6
CONTINUOUS
10
127.25
20
-41.75
11
144.75
21
-41.75
0
LINE
8
0
6
CONTINUOUS
10
144.75
20
-41.75
11
144.75
21
-25.25
0
LINE
8
0
6
CONTINUOUS
10
144.75
20
-25.25
11
127.25
21
-25.25
0
LINE
8
0
6
CONTINUOUS
10
127.25
20
-25.25
11
127.25
21
-41.75
0
LINE
8
0
6
CONTINUOUS
10
109.25
20
-75.75
11
109.25
21
-76.25
0
LINE
8
0
6
CONTINUOUS
10
96.4112847
20
-107.2955499
11
99.3815843
21
-94.4297687
0
LINE
8
0
6
CONTINUOUS
10
99.3815843
20
-94.4297687
11
96.1210054
21
-93.6770047
0
LINE
8
0
6
CONTINUOUS
10
96.6681763
20
-110.8572355
11
112.7770113
21
-117.6950302
0
LINE
8
0
6
CONTINUOUS
10
112.7770113
20
-117.6950302
11
119.2240749
21
-102.5067001
0
LINE
8
0
6
CONTINUOUS
10
119.2240749
20
-102.5067001
11
103.1152399
21
-95.6689054
0
LINE
8
0
6
CONTINUOUS
10
103.1152399
20
-95.6689054
11
96.6681763
21
-110.8572355
0
LINE
8
0
6
CONTINUOUS
10
113.7406956
20
-118.3602545
11
119.5513492
21
-123.065629
0
LINE
8
0
6
CONTINUOUS
10
126
20
-128.2876434
11
127.3407499
21
-129.3733613
0
LINE
8
0
6
CONTINUOUS
10
127.3407499
20
-129.3733613
11
132.4486508
21
-123.065629
0
LINE
8
0
6
CONTINUOUS
10
137.2591462
20
-117.125162
11
137.7245364
21
-116.5504529
0
LINE
8
0
6
CONTINUOUS
10
137.7245364
20
-116.5504529
11
135.0207429
21
-114.3609641
0
LINE
8
0
6
CONTINUOUS
10
126
20
-107.0561105
11
124.1244821
21
-105.5373461
0
LINE
8
0
6
CONTINUOUS
10
124.1244821
20
-105.5373461
11
116.9792571
21
-114.3609641
0
LINE
8
0
6
CONTINUOUS
10
114.7408538
20
-117.125162
11
113.7406956
21
-118.3602545
0
LINE
8
0
6
CONTINUOUS
10
156.3301081
20
-110.5068748
11
173.3815843
21
-106.5702313
0
LINE
8
0
6
CONTINUOUS
10
173.3815843
20
-106.5702313
11
169.6698919
21
-90.4931252
0
LINE
8
0
6
CONTINUOUS
10
169.6698919
20
-90.4931252
11
152.6184157
21
-94.4297687
0
LINE
8
0
6
CONTINUOUS
10
152.6184157
20
-94.4297687
11
156.3301081
21
-110.5068748
0
LINE
8
0
6
CONTINUOUS
10
139.2229887
20
-117.6950302
11
155.3318237
21
-110.8572355
0
LINE
8
0
6
CONTINUOUS
10
155.3318237
20
-110.8572355
11
148.8847601
21
-95.6689054
0
LINE
8
0
6
CONTINUOUS
10
148.8847601
20
-95.6689054
11
132.7759251
21
-102.5067001
0
LINE
8
0
6
CONTINUOUS
10
132.7759251
20
-102.5067001
11
139.2229887
21
-117.6950302
0
LINE
8
0
6
CONTINUOUS
10
124.6592501
20
-129.3733613
11
126
21
-128.2876434
0
LINE
8
0
6
CONTINUOUS
10
132.4486508
20
-123.065629
11
138.2593044
21
-118.3602545
0
LINE
8
0
6
CONTINUOUS
10
138.2593044
20
-118.3602545
11
137.2591462
21
-117.125162
0
LINE
8
0
6
CONTINUOUS
10
135.0207429
20
-114.3609641
11
127.8755179
21
-105.5373461
0
LINE
8
0
6
CONTINUOUS
10
127.8755179
20
-105.5373461
11
126
21
-107.0561105
0
LINE
8
0
6
CONTINUOUS
10
116.9792571
20
-114.3609641
11
114.2754636
21
-116.5504529
0
LINE
8
0
6
CONTINUOUS
10
114.2754636
20
-116.5504529
11
114.7408538
21
-117.125162
0
LINE
8
0
6
CONTINUOUS
10
119.5513492
20
-123.065629
11
124.6592501
21
-129.3733613
0
LINE
8
0
6
CONTINUOUS
10
113.1453738
20
-143.979113
11
123.9194496
21
-130.1889248
0
LINE
8
0
6
CONTINUOUS
10
123.9194496
20
-130.1889248
11
110.9172722
21
-120.0305104
0
LINE
8
0
6
CONTINUOUS
10
110.9172722
20
-120.0305104
11
100.1431964
21
-133.8206986
0
LINE
8
0
6
CONTINUOUS
10
100.1431964
20
-133.8206986
11
113.1453738
21
-143.979113
0
ENDSEC
0
EOF