0
SECTION
2
HEADER
9
$INSUNITS
70
4
0
ENDSEC
0
SECTION
2
TABLES
0
TABLE
2
LTYPE
0
LTYPE
72
65
70
0
2
CONTINUOUS
3
______
73
0
40
0
0
LTYPE
72
65
70
0
2
DASHED
3
_ _ _ 
73
2
40
7.5
49
5
49
-2.5
0
LTYPE
72
65
70
0
2
DOTTED
3
. . . 
73
2
40
1.5
49
0.5
49
-1
0
ENDTAB
0
TABLE
2
LAYER
0
ENDTAB
0
ENDSEC
0
SECTION
2
ENTITIES
0
LINE
8
0
6
CONTINUOUS
10
-11
20
-6.2714285
11
-11
21
56.5
0
LINE
8
0
6
CONTINUOUS
10
-6
20
61.5
11
6.1886117
21
61.5
0
LINE
8
0
6
CONTINUOUS
10
7.7697507
20
61.7565836
11
24.8794833
21
67.4598278
0
LINE
8
0
6
CONTINUOUS
10
25.1224028
20
67.5340008
11
42.343322
21
72.3175894
0
LINE
8
0
6
CONTINUOUS
10
43.6815415
20
72.5
11
64.3184585
21
72.5
0
LINE
8
0
6
CONTINUOUS
10
65.656678
20
72.3175894
11
82.7449155
21
67.5708568
0
LINE
8
0
6
CONTINUOUS
10
83.26114
20
67.4564767
11
100.5918175
21
64.5680304
0
LINE
8
0
6
CONTINUOUS
10
101.4138125
20
64.5
11
124.6462953
21
64.5
0
LINE
8
0
6
CONTINUOUS
10
129.646079
20
59.5465095
11
129.9997837
21
21.5232522
0
LINE
8
0
6
CONTINUOUS
10
130
20
21.4767426
11
130
21
0.5521511
0
LINE
8
0
6
CONTINUOUS
10
129.9989121
20
0.4478561
11
129.0645942
21
-44.3345709
0
LINE
8
0
6
CONTINUOUS
10
127.1439895
20
-48.1703298
11
116.4068941
21
-56.5590681
0
LINE
8
0
6
CONTINUOUS
10
109.3885329
20
-55.6973217
11
99.3070544
21
-42.7936176
0
LINE
8
0
6
CONTINUOUS
10
98.42814
20
-41.9185181
11
85.1402765
21
-31.6296704
0
LINE
8
0
6
CONTINUOUS
10
83.9123587
20
-30.9312712
11
68.1035658
21
-24.7012144
0
LINE
8
0
6
CONTINUOUS
10
67.3124608
20
-24.4628269
11
50.0255094
21
-20.7789206
0
LINE
8
0
6
CONTINUOUS
10
49.8135059
20
-20.7385044
11
-6.830113
21
-11.2020382
0
ARC
8
0
6
CONTINUOUS
10
-6
20
56.5
40
5
50
90
51
180
0
ARC
8
0
6
CONTINUOUS
10
6.1886117
20
66.5
40
5
50
270
51
288.4349506
0
ARC
8
0
6
CONTINUOUS
10
26.4606223
20
62.7164113
40
5
50
105.5241131
51
108.4349506
0
ARC
8
0
6
CONTINUOUS
10
43.6815415
20
67.5
40
5
50
90
51
105.5241131
0
ARC
8
0
6
CONTINUOUS
10
64.3184585
20
67.5
40
5
50
74.4758869
51
90
0
ARC
8
0
6
CONTINUOUS
10
84.083135
20
72.3884463
40
5
50
254.4758869
51
260.5376769
0
ARC
8
0
6
CONTINUOUS
10
101.4138125
20
69.5
40
5
50
260.5376769
51
270
0
ARC
8
0
6
CONTINUOUS
10
124.6462953
20
59.5
40
5
50
0.5329673
51
90
0
ARC
8
0
6
CONTINUOUS
10
125
20
21.4767426
40
5
50
0
51
0.5329673
0
ARC
8
0
6
CONTINUOUS
10
125
20
0.5521511
40
5
50
358.8047806
51
0
0
ARC
8
0
6
CONTINUOUS
10
124.0656821
20
-44.2302759
40
5
50
307.9999995
51
358.8047806
0
ARC
8
0
6
CONTINUOUS
10
113.3285867
20
-52.6190143
40
5
50
217.9999995
51
307.9999995
0
ARC
8
0
6
CONTINUOUS
10
95.3670006
20
-45.8719249
40
5
50
37.9999995
51
52.2492322
0
ARC
8
0
6
CONTINUOUS
10
82.0791372
20
-35.5830772
40
5
50
52.2492322
51
68.4911892
0
ARC
8
0
6
CONTINUOUS
10
66.2703443
20
-29.3530204
40
5
50
68.4911892
51
77.9700302
0
ARC
8
0
6
CONTINUOUS
10
48.9833929
20
-25.6691142
40
5
50
77.9700302
51
80.443356
0
ARC
8
0
6
CONTINUOUS
10
-6
20
-6.2714285
40
5
50
180
51
260.443356
0
LINE
8
0
6
CONTINUOUS
10
-8.75
20
-8.25
11
8.75
21
-8.25
0
LINE
8
0
6
CONTINUOUS
10
8.75
20
-8.25
11
8.75
21
8.25
0
LINE
8
0
6
CONTINUOUS
10
8.75
20
8.25
11
-8.75
21
8.25
0
LINE
8
0
6
CONTINUOUS
10
-8.75
20
8.25
11
-8.75
21
-8.25
0
LINE
8
0
6
CONTINUOUS
10
-8.75
20
8.75
11
8.75
21
8.75
0
LINE
8
0
6
CONTINUOUS
10
8.75
20
8.75
11
8.75
21
25.25
0
LINE
8
0
6
CONTINUOUS
10
8.75
20
25.25
11
-8.75
21
25.25
0
LINE
8
0
6
CONTINUOUS
10
-8.75
20
25.25
11
-8.75
21
8.75
0
LINE
8
0
6
CONTINUOUS
10
-8.75
20
25.75
11
8.75
21
25.75
0
LINE
8
0
6
CONTINUOUS
10
8.75
20
25.75
11
8.75
21
42.25
0
LINE
8
0
6
CONTINUOUS
10
8.75
20
42.25
11
-8.75
21
42.25
0
LINE
8
0
6
CONTINUOUS
10
-8.75
20
42.25
11
-8.75
21
25.75
0
LINE
8
0
6
CONTINUOUS
10
-8.75
20
42.75
11
8.75
21
42.75
0
LINE
8
0
6
CONTINUOUS
10
8.75
20
42.75
11
8.75
21
59.25
0
LINE
8
0
6
CONTINUOUS
10
8.75
20
59.25
11
-8.75
21
59.25
0
LINE
8
0
6
CONTINUOUS
10
-8.75
20
59.25
11
-8.75
21
42.75
0
LINE
8
0
6
CONTINUOUS
10
9.25
20
-8.25
11
26.75
21
-8.25
0
LINE
8
0
6
CONTINUOUS
10
26.75
20
-8.25
11
26.75
21
8.25
0
LINE
8
0
6
CONTINUOUS
10
26.75
20
8.25
11
9.25
21
8.25
0
LINE
8
0
6
CONTINUOUS
10
9.25
20
8.25
11
9.25
21
-8.25
0
LINE
8
0
6
CONTINUOUS
10
9.25
20
8.75
11
26.75
21
8.75
0
LINE
8
0
6
CONTINUOUS
10
26.75
20
8.75
11
26.75
21
25.25
0
LINE
8
0
6
CONTINUOUS
10
26.75
20
25.25
11
9.25
21
25.25
0
LINE
8
0
6
CONTINUOUS
10
9.25
20
25.25
11
9.25
21
8.75
0
LINE
8
0
6
CONTINUOUS
10
9.25
20
25.75
11
26.75
21
25.75
0
LINE
8
0
6
CONTINUOUS
10
26.75
20
25.75
11
26.75
21
42.25
0
LINE
8
0
6
CONTINUOUS
10
26.75
20
42.25
11
9.25
21
42.25
0
LINE
8
0
6
CONTINUOUS
10
9.25
20
42.25
11
9.25
21
25.75
0
LINE
8
0
6
CONTINUOUS
10
9.25
20
42.75
11
26.75
21
42.75
0
LINE
8
0
6
CONTINUOUS
10
26.75
20
42.75
11
26.75
21
59.25
0
LINE
8
0
6
CONTINUOUS
10
26.75
20
59.25
11
9.25
21
59.25
0
LINE
8
0
6
CONTINUOUS
10
9.25
20
59.25
11
9.25
21
42.75
0
LINE
8
0
6
CONTINUOUS
10
27.25
20
-2.25
11
44.75
21
-2.25
0
LINE
8
0
6
CONTINUOUS
10
44.75
20
-2.25
11
44.75
21
14.25
0
LINE
8
0
6
CONTINUOUS
10
44.75
20
14.25
11
27.25
21
14.25
0
LINE
8
0
6
CONTINUOUS
10
27.25
20
14.25
11
27.25
21
-2.25
0
LINE
8
0
6
CONTINUOUS
10
27.25
20
14.75
11
44.75
21
14.75
0
LINE
8
0
6
CONTINUOUS
10
44.75
20
14.75
11
44.75
21
31.25
0
LINE
8
0
6
CONTINUOUS
10
44.75
20
31.25
11
27.25
21
31.25
0
LINE
8
0
6
CONTINUOUS
10
27.25
20
31.25
11
27.25
21
14.75
0
LINE
8
0
6
CONTINUOUS
10
27.25
20
31.75
11
44.75
21
31.75
0
LINE
8
0
6
CONTINUOUS
10
44.75
20
31.75
11
44.75
21
48.25
0
LINE
8
0
6
CONTINUOUS
10
44.75
20
48.25
11
27.25
21
48.25
0
LINE
8
0
6
CONTINUOUS
10
27.25
20
48.25
11
27.25
21
31.75
0
LINE
8
0
6
CONTINUOUS
10
27.25
20
48.75
11
44.75
21
48.75
0
LINE
8
0
6
CONTINUOUS
10
44.75
20
48.75
11
44.75
21
65.25
0
LINE
8
0
6
CONTINUOUS
10
44.75
20
65.25
11
27.25
21
65.25
0
LINE
8
0
6
CONTINUOUS
10
27.25
20
65.25
11
27.25
21
48.75
0
LINE
8
0
6
CONTINUOUS
10
45.25
20
2.75
11
62.75
21
2.75
0
LINE
8
0
6
CONTINUOUS
10
62.75
20
2.75
11
62.75
21
19.25
0
LINE
8
0
6
CONTINUOUS
10
62.75
20
19.25
11
45.25
21
19.25
0
LINE
8
0
6
CONTINUOUS
10
45.25
20
19.25
11
45.25
21
2.75
0
LINE
8
0
6
CONTINUOUS
10
45.25
20
19.75
11
62.75
21
19.75
0
LINE
8
0
6
CONTINUOUS
10
62.75
20
19.75
11
62.75
21
36.25
0
LINE
8
0
6
CONTINUOUS
10
62.75
20
36.25
11
45.25
21
36.25
0
LINE
8
0
6
CONTINUOUS
10
45.25
20
36.25
11
45.25
21
19.75
0
LINE
8
0
6
CONTINUOUS
10
45.25
20
36.75
11
62.75
21
36.75
0
LINE
8
0
6
CONTINUOUS
10
62.75
20
36.75
11
62.75
21
53.25
0
LINE
8
0
6
CONTINUOUS
10
62.75
20
53.25
11
45.25
21
53.25
0
LINE
8
0
6
CONTINUOUS
10
45.25
20
53.25
11
45.25
21
36.75
0
LINE
8
0
6
CONTINUOUS
10
45.25
20
53.75
11
62.75
21
53.75
0
LINE
8
0
6
CONTINUOUS
10
62.75
20
53.75
11
62.75
21
70.25
0
LINE
8
0
6
CONTINUOUS
10
62.75
20
70.25
11
45.25
21
70.25
0
LINE
8
0
6
CONTINUOUS
10
45.25
20
70.25
11
45.25
21
53.75
0
LINE
8
0
6
CONTINUOUS
10
63.25
20
-2.25
11
80.75
21
-2.25
0
LINE
8
0
6
CONTINUOUS
10
80.75
20
-2.25
11
80.75
21
14.25
0
LINE
8
0
6
CONTINUOUS
10
80.75
20
14.25
11
63.25
21
14.25
0
LINE
8
0
6
CONTINUOUS
10
63.25
20
14.25
11
63.25
21
-2.25
0
LINE
8
0
6
CONTINUOUS
10
63.25
20
14.75
11
80.75
21
14.75
0
LINE
8
0
6
CONTINUOUS
10
80.75
20
14.75
11
80.75
21
31.25
0
LINE
8
0
6
CONTINUOUS
10
80.75
20
31.25
11
63.25
21
31.25
0
LINE
8
0
6
CONTINUOUS
10
63.25
20
31.25
11
63.25
21
14.75
0
LINE
8
0
6
CONTINUOUS
10
63.25
20
31.75
11
80.75
21
31.75
0
LINE
8
0
6
CONTINUOUS
10
80.75
20
31.75
11
80.75
21
48.25
0
LINE
8
0
6
CONTINUOUS
10
80.75
20
48.25
11
63.25
21
48.25
0
LINE
8
0
6
CONTINUOUS
10
63.25
20
48.25
11
63.25
21
31.75
0
LINE
8
0
6
CONTINUOUS
10
63.25
20
48.75
11
80.75
21
48.75
0
LINE
8
0
6
CONTINUOUS
10
80.75
20
48.75
11
80.75
21
65.25
0
LINE
8
0
6
CONTINUOUS
10
80.75
20
65.25
11
63.25
21
65.25
0
LINE
8
0
6
CONTINUOUS
10
63.25
20
65.25
11
63.25
21
48.75
0
LINE
8
0
6
CONTINUOUS
10
81.25
20
-5.25
11
98.75
21
-5.25
0
LINE
8
0
6
CONTINUOUS
10
98.75
20
-5.25
11
98.75
21
11.25
0
LINE
8
0
6
CONTINUOUS
10
98.75
20
11.25
11
81.25
21
11.25
0
LINE
8
0
6
CONTINUOUS
10
81.25
20
11.25
11
81.25
21
-5.25
0
LINE
8
0
6
CONTINUOUS
10
81.25
20
11.75
11
98.75
21
11.75
0
LINE
8
0
6
CONTINUOUS
10
98.75
20
11.75
11
98.75
21
28.25
0
LINE
8
0
6
CONTINUOUS
10
98.75
20
28.25
11
81.25
21
28.25
0
LINE
8
0
6
CONTINUOUS
10
81.25
20
28.25
11
81.25
21
11.75
0
LINE
8
0
6
CONTINUOUS
10
81.25
20
28.75
11
98.75
21
28.75
0
LINE
8
0
6
CONTINUOUS
10
98.75
20
28.75
11
98.75
21
45.25
0
LINE
8
0
6
CONTINUOUS
10
98.75
20
45.25
11
81.25
21
45.25
0
LINE
8
0
6
CONTINUOUS
10
81.25
20
45.25
11
81.25
21
28.75
0
LINE
8
0
6
CONTINUOUS
10
81.25
20
45.75
11
98.75
21
45.75
0
LINE
8
0
6
CONTINUOUS
10
98.75
20
45.75
11
98.75
21
62.25
0
LINE
8
0
6
CONTINUOUS
10
98.75
20
62.25
11
81.25
21
62.25
0
LINE
8
0
6
CONTINUOUS
10
81.25
20
62.25
11
81.25
21
45.75
0
LINE
8
0
6
CONTINUOUS
10
99.25
20
2.75
11
116.75
21
2.75
0
LINE
8
0
6
CONTINUOUS
10
116.75
20
2.75
11
116.75
21
19.25
0
LINE
8
0
6
CONTINUOUS
10
116.75
20
19.25
11
99.25
21
19.25
0
LINE
8
0
6
CONTINUOUS
10
99.25
20
19.25
11
99.25
21
2.75
0
LINE
8
0
6
CONTINUOUS
10
52.6184157
20
-19.0702313
11
69.6698919
21
-23.0068748
0
LINE
8
0
6
CONTINUOUS
10
69.6698919
20
-23.0068748
11
73.3815843
21
-6.9297687
0
LINE
8
0
6
CONTINUOUS
10
73.3815843
20
-6.9297687
11
56.3301081
21
-2.9931252
0
LINE
8
0
6
CONTINUOUS
10
56.3301081
20
-2.9931252
11
52.6184157
21
-19.0702313
0
LINE
8
0
6
CONTINUOUS
10
70.6681763
20
-23.3572355
11
86.7770113
21
-30.1950302
0
LINE
8
0
6
CONTINUOUS
10
86.7770113
20
-30.1950302
11
93.2240749
21
-15.0067001
0
LINE
8
0
6
CONTINUOUS
10
93.2240749
20
-15.0067001
11
77.1152399
21
-8.1689054
0
LINE
8
0
6
CONTINUOUS
10
77.1152399
20
-8.1689054
11
70.6681763
21
-23.3572355
0
LINE
8
0
6
CONTINUOUS
10
87.7406956
20
-30.8602545
11
101.3407499
21
-41.8733613
0
LINE
8
0
6
CONTINUOUS
10
101.3407499
20
-41.8733613
11
111.7245364
21
-29.0504529
0
LINE
8
0
6
CONTINUOUS
10
111.7245364
20
-29.0504529
11
98.1244821
21
-18.0373461
0
LINE
8
0
6
CONTINUOUS
10
98.1244821
20
-18.0373461
11
87.7406956
21
-30.8602545
0
LINE
8
0
6
CONTINUOUS
10
102.0805504
20
-42.6889248
11
112.8546262
21
-56.479113
0
LINE
8
0
6
CONTINUOUS
10
112.8546262
20
-56.479113
11
125.8568036
21
-46.3206986
0
LINE
8
0
6
CONTINUOUS
10
125.8568036
20
-46.3206986
11
115.0827278
21
-32.5305104
0
LINE
8
0
6
CONTINUOUS
10
115.0827278
20
-32.5305104
11
102.0805504
21
-42.6889248
0
ENDSEC
0
EOF