0
SECTION
2
HEADER
9
$INSUNITS
70
4
0
ENDSEC
0
SECTION
2
TABLES
0
TABLE
2
LTYPE
0
LTYPE
72
65
70
0
2
CONTINUOUS
3
______
73
0
40
0
0
LTYPE
72
65
70
0
2
DASHED
3
_ _ _ 
73
2
40
7.5
49
5
49
-2.5
0
LTYPE
72
65
70
0
2
DOTTED
3
. . . 
73
2
40
1.5
49
0.5
49
-1
0
ENDTAB
0
TABLE
2
LAYER
0
ENDTAB
0
ENDSEC
0
SECTION
2
ENTITIES
0
LINE
8
0
6
CONTINUOUS
10
-8.75
20
-8.25
11
8.75
21
-8.25
0
LINE
8
0
6
CONTINUOUS
10
8.75
20
-8.25
11
8.75
21
8.25
0
LINE
8
0
6
CONTINUOUS
10
8.75
20
8.25
11
-8.75
21
8.25
0
LINE
8
0
6
CONTINUOUS
10
-8.75
20
8.25
11
-8.75
21
-8.25
0
LINE
8
0
6
CONTINUOUS
10
-8.75
20
8.75
11
8.75
21
8.75
0
LINE
8
0
6
CONTINUOUS
10
8.75
20
8.75
11
8.75
21
25.25
0
LINE
8
0
6
CONTINUOUS
10
8.75
20
25.25
11
-8.75
21
25.25
0
LINE
8
0
6
CONTINUOUS
10
-8.75
20
25.25
11
-8.75
21
8.75
0
LINE
8
0
6
CONTINUOUS
10
-8.75
20
25.75
11
8.75
21
25.75
0
LINE
8
0
6
CONTINUOUS
10
8.75
20
25.75
11
8.75
21
42.25
0
LINE
8
0
6
CONTINUOUS
10
8.75
20
42.25
11
-8.75
21
42.25
0
LINE
8
0
6
CONTINUOUS
10
-8.75
20
42.25
11
-8.75
21
25.75
0
LINE
8
0
6
CONTINUOUS
10
-8.75
20
42.75
11
8.75
21
42.75
0
LINE
8
0
6
CONTINUOUS
10
8.75
20
42.75
11
8.75
21
59.25
0
LINE
8
0
6
CONTINUOUS
10
8.75
20
59.25
11
-8.75
21
59.25
0
LINE
8
0
6
CONTINUOUS
10
-8.75
20
59.25
11
-8.75
21
42.75
0
LINE
8
0
6
CONTINUOUS
10
9.25
20
-8.25
11
26.75
21
-8.25
0
LINE
8
0
6
CONTINUOUS
10
26.75
20
-8.25
11
26.75
21
8.25
0
LINE
8
0
6
CONTINUOUS
10
26.75
20
8.25
11
9.25
21
8.25
0
LINE
8
0
6
CONTINUOUS
10
9.25
20
8.25
11
9.25
21
-8.25
0
LINE
8
0
6
CONTINUOUS
10
9.25
20
8.75
11
26.75
21
8.75
0
LINE
8
0
6
CONTINUOUS
10
26.75
20
8.75
11
26.75
21
25.25
0
LINE
8
0
6
CONTINUOUS
10
26.75
20
25.25
11
9.25
21
25.25
0
LINE
8
0
6
CONTINUOUS
10
9.25
20
25.25
11
9.25
21
8.75
0
LINE
8
0
6
CONTINUOUS
10
9.25
20
25.75
11
26.75
21
25.75
0
LINE
8
0
6
CONTINUOUS
10
26.75
20
25.75
11
26.75
21
42.25
0
LINE
8
0
6
CONTINUOUS
10
26.75
20
42.25
11
9.25
21
42.25
0
LINE
8
0
6
CONTINUOUS
10
9.25
20
42.25
11
9.25
21
25.75
0
LINE
8
0
6
CONTINUOUS
10
9.25
20
42.75
11
26.75
21
42.75
0
LINE
8
0
6
CONTINUOUS
10
26.75
20
42.75
11
26.75
21
59.25
0
LINE
8
0
6
CONTINUOUS
10
26.75
20
59.25
11
9.25
21
59.25
0
LINE
8
0
6
CONTINUOUS
10
9.25
20
59.25
11
9.25
21
42.75
0
LINE
8
0
6
CONTINUOUS
10
27.25
20
-2.25
11
44.75
21
-2.25
0
LINE
8
0
6
CONTINUOUS
10
44.75
20
-2.25
11
44.75
21
14.25
0
LINE
8
0
6
CONTINUOUS
10
44.75
20
14.25
11
27.25
21
14.25
0
LINE
8
0
6
CONTINUOUS
10
27.25
20
14.25
11
27.25
21
-2.25
0
LINE
8
0
6
CONTINUOUS
10
27.25
20
14.75
11
44.75
21
14.75
0
LINE
8
0
6
CONTINUOUS
10
44.75
20
14.75
11
44.75
21
31.25
0
LINE
8
0
6
CONTINUOUS
10
44.75
20
31.25
11
27.25
21
31.25
0
LINE
8
0
6
CONTINUOUS
10
27.25
20
31.25
11
27.25
21
14.75
0
LINE
8
0
6
CONTINUOUS
10
27.25
20
31.75
11
44.75
21
31.75
0
LINE
8
0
6
CONTINUOUS
10
44.75
20
31.75
11
44.75
21
48.25
0
LINE
8
0
6
CONTINUOUS
10
44.75
20
48.25
11
27.25
21
48.25
0
LINE
8
0
6
CONTINUOUS
10
27.25
20
48.25
11
27.25
21
31.75
0
LINE
8
0
6
CONTINUOUS
10
27.25
20
48.75
11
44.75
21
48.75
0
LINE
8
0
6
CONTINUOUS
10
44.75
20
48.75
11
44.75
21
65.25
0
LINE
8
0
6
CONTINUOUS
10
44.75
20
65.25
11
27.25
21
65.25
0
LINE
8
0
6
CONTINUOUS
10
27.25
20
65.25
11
27.25
21
48.75
0
LINE
8
0
6
CONTINUOUS
10
45.25
20
2.75
11
62.75
21
2.75
0
LINE
8
0
6
CONTINUOUS
10
62.75
20
2.75
11
62.75
21
19.25
0
LINE
8
0
6
CONTINUOUS
10
62.75
20
19.25
11
45.25
21
19.25
0
LINE
8
0
6
CONTINUOUS
10
45.25
20
19.25
11
45.25
21
2.75
0
LINE
8
0
6
CONTINUOUS
10
45.25
20
19.75
11
62.75
21
19.75
0
LINE
8
0
6
CONTINUOUS
10
62.75
20
19.75
11
62.75
21
36.25
0
LINE
8
0
6
CONTINUOUS
10
62.75
20
36.25
11
45.25
21
36.25
0
LINE
8
0
6
CONTINUOUS
10
45.25
20
36.25
11
45.25
21
19.75
0
LINE
8
0
6
CONTINUOUS
10
45.25
20
36.75
11
62.75
21
36.75
0
LINE
8
0
6
CONTINUOUS
10
62.75
20
36.75
11
62.75
21
53.25
0
LINE
8
0
6
CONTINUOUS
10
62.75
20
53.25
11
45.25
21
53.25
0
LINE
8
0
6
CONTINUOUS
10
45.25
20
53.25
11
45.25
21
36.75
0
LINE
8
0
6
CONTINUOUS
10
45.25
20
53.75
11
62.75
21
53.75
0
LINE
8
0
6
CONTINUOUS
10
62.75
20
53.75
11
62.75
21
70.25
0
LINE
8
0
6
CONTINUOUS
10
62.75
20
70.25
11
45.25
21
70.25
0
LINE
8
0
6
CONTINUOUS
10
45.25
20
70.25
11
45.25
21
53.75
0
LINE
8
0
6
CONTINUOUS
10
63.25
20
-2.25
11
80.75
21
-2.25
0
LINE
8
0
6
CONTINUOUS
10
80.75
20
-2.25
11
80.75
21
14.25
0
LINE
8
0
6
CONTINUOUS
10
80.75
20
14.25
11
63.25
21
14.25
0
LINE
8
0
6
CONTINUOUS
10
63.25
20
14.25
11
63.25
21
-2.25
0
LINE
8
0
6
CONTINUOUS
10
63.25
20
14.75
11
80.75
21
14.75
0
LINE
8
0
6
CONTINUOUS
10
80.75
20
14.75
11
80.75
21
31.25
0
LINE
8
0
6
CONTINUOUS
10
80.75
20
31.25
11
63.25
21
31.25
0
LINE
8
0
6
CONTINUOUS
10
63.25
20
31.25
11
63.25
21
14.75
0
LINE
8
0
6
CONTINUOUS
10
63.25
20
31.75
11
80.75
21
31.75
0
LINE
8
0
6
CONTINUOUS
10
80.75
20
31.75
11
80.75
21
48.25
0
LINE
8
0
6
CONTINUOUS
10
80.75
20
48.25
11
63.25
21
48.25
0
LINE
8
0
6
CONTINUOUS
10
63.25
20
48.25
11
63.25
21
31.75
0
LINE
8
0
6
CONTINUOUS
10
63.25
20
48.75
11
80.75
21
48.75
0
LINE
8
0
6
CONTINUOUS
10
80.75
20
48.75
11
80.75
21
65.25
0
LINE
8
0
6
CONTINUOUS
10
80.75
20
65.25
11
63.25
21
65.25
0
LINE
8
0
6
CONTINUOUS
10
63.25
20
65.25
11
63.25
21
48.75
0
LINE
8
0
6
CONTINUOUS
10
81.25
20
-5.25
11
98.75
21
-5.25
0
LINE
8
0
6
CONTINUOUS
10
98.75
20
-5.25
11
98.75
21
11.25
0
LINE
8
0
6
CONTINUOUS
10
98.75
20
11.25
11
81.25
21
11.25
0
LINE
8
0
6
CONTINUOUS
10
81.25
20
11.25
11
81.25
21
-5.25
0
LINE
8
0
6
CONTINUOUS
10
81.25
20
11.75
11
98.75
21
11.75
0
LINE
8
0
6
CONTINUOUS
10
98.75
20
11.75
11
98.75
21
28.25
0
LINE
8
0
6
CONTINUOUS
10
98.75
20
28.25
11
81.25
21
28.25
0
LINE
8
0
6
CONTINUOUS
10
81.25
20
28.25
11
81.25
21
11.75
0
LINE
8
0
6
CONTINUOUS
10
81.25
20
28.75
11
98.75
21
28.75
0
LINE
8
0
6
CONTINUOUS
10
98.75
20
28.75
11
98.75
21
45.25
0
LINE
8
0
6
CONTINUOUS
10
98.75
20
45.25
11
81.25
21
45.25
0
LINE
8
0
6
CONTINUOUS
10
81.25
20
45.25
11
81.25
21
28.75
0
LINE
8
0
6
CONTINUOUS
10
81.25
20
45.75
11
98.75
21
45.75
0
LINE
8
0
6
CONTINUOUS
10
98.75
20
45.75
11
98.75
21
62.25
0
LINE
8
0
6
CONTINUOUS
10
98.75
20
62.25
11
81.25
21
62.25
0
LINE
8
0
6
CONTINUOUS
10
81.25
20
62.25
11
81.25
21
45.75
0
LINE
8
0
6
CONTINUOUS
10
99.25
20
2.75
11
116.75
21
2.75
0
LINE
8
0
6
CONTINUOUS
10
116.75
20
2.75
11
116.75
21
19.25
0
LINE
8
0
6
CONTINUOUS
10
116.75
20
19.25
11
99.25
21
19.25
0
LINE
8
0
6
CONTINUOUS
10
99.25
20
19.25
11
99.25
21
2.75
0
LINE
8
0
6
CONTINUOUS
10
52.6184157
20
-19.0702313
11
69.6698919
21
-23.0068748
0
LINE
8
0
6
CONTINUOUS
10
69.6698919
20
-23.0068748
11
73.3815843
21
-6.9297687
0
LINE
8
0
6
CONTINUOUS
10
73.3815843
20
-6.9297687
11
56.3301081
21
-2.9931252
0
LINE
8
0
6
CONTINUOUS
10
56.3301081
20
-2.9931252
11
52.6184157
21
-19.0702313
0
LINE
8
0
6
CONTINUOUS
10
70.6681763
20
-23.3572355
11
86.7770113
21
-30.1950302
0
LINE
8
0
6
CONTINUOUS
10
86.7770113
20
-30.1950302
11
93.2240749
21
-15.0067001
0
LINE
8
0
6
CONTINUOUS
10
93.2240749
20
-15.0067001
11
77.1152399
21
-8.1689054
0
LINE
8
0
6
CONTINUOUS
10
77.1152399
20
-8.1689054
11
70.6681763
21
-23.3572355
0
LINE
8
0
6
CONTINUOUS
10
87.7406956
20
-30.8602545
11
101.3407499
21
-41.8733613
0
LINE
8
0
6
CONTINUOUS
10
101.3407499
20
-41.8733613
11
111.7245364
21
-29.0504529
0
LINE
8
0
6
CONTINUOUS
10
111.7245364
20
-29.0504529
11
98.1244821
21
-18.0373461
0
LINE
8
0
6
CONTINUOUS
10
98.1244821
20
-18.0373461
11
87.7406956
21
-30.8602545
0
LINE
8
0
6
CONTINUOUS
10
102.0805504
20
-42.6889248
11
112.8546262
21
-56.479113
0
LINE
8
0
6
CONTINUOUS
10
112.8546262
20
-56.479113
11
125.8568036
21
-46.3206986
0
LINE
8
0
6
CONTINUOUS
10
125.8568036
20
-46.3206986
11
115.0827278
21
-32.5305104
0
LINE
8
0
6
CONTINUOUS
10
115.0827278
20
-32.5305104
11
102.0805504
21
-42.6889248
0
ENDSEC
0
EOF