0
SECTION
2
HEADER
9
$INSUNITS
70
4
0
ENDSEC
0
SECTION
2
TABLES
0
TABLE
2
LTYPE
0
LTYPE
72
65
70
0
2
CONTINUOUS
3
______
73
0
40
0
0
LTYPE
72
65
70
0
2
DASHED
3
_ _ _ 
73
2
40
7.5
49
5
49
-2.5
0
LTYPE
72
65
70
0
2
DOTTED
3
. . . 
73
2
40
1.5
49
0.5
49
-1
0
ENDTAB
0
TABLE
2
LAYER
0
ENDTAB
0
ENDSEC
0
SECTION
2
ENTITIES
0
LINE
8
0
6
CONTINUOUS
10
17.25
20
-95.75
11
34.75
21
-95.75
0
LINE
8
0
6
CONTINUOUS
10
34.75
20
-95.75
11
34.75
21
-79.25
0
LINE
8
0
6
CONTINUOUS
10
34.75
20
-79.25
11
17.25
21
-79.25
0
LINE
8
0
6
CONTINUOUS
10
17.25
20
-79.25
11
17.25
21
-95.75
0
LINE
8
0
6
CONTINUOUS
10
17.25
20
-78.75
11
34.75
21
-78.75
0
LINE
8
0
6
CONTINUOUS
10
34.75
20
-78.75
11
34.75
21
-62.25
0
LINE
8
0
6
CONTINUOUS
10
34.75
20
-62.25
11
17.25
21
-62.25
0
LINE
8
0
6
CONTINUOUS
10
17.25
20
-62.25
11
17.25
21
-78.75
0
LINE
8
0
6
CONTINUOUS
10
17.25
20
-61.75
11
34.75
21
-61.75
0
LINE
8
0
6
CONTINUOUS
10
34.75
20
-61.75
11
34.75
21
-45.25
0
LINE
8
0
6
CONTINUOUS
10
34.75
20
-45.25
11
17.25
21
-45.25
0
LINE
8
0
6
CONTINUOUS
10
17.25
20
-45.25
11
17.25
21
-61.75
0
LINE
8
0
6
CONTINUOUS
10
17.25
20
-44.75
11
34.75
21
-44.75
0
LINE
8
0
6
CONTINUOUS
10
34.75
20
-44.75
11
34.75
21
-28.25
0
LINE
8
0
6
CONTINUOUS
10
34.75
20
-28.25
11
17.25
21
-28.25
0
LINE
8
0
6
CONTINUOUS
10
17.25
20
-28.25
11
17.25
21
-44.75
0
LINE
8
0
6
CONTINUOUS
10
35.25
20
-95.75
11
52.75
21
-95.75
0
LINE
8
0
6
CONTINUOUS
10
52.75
20
-95.75
11
52.75
21
-79.25
0
LINE
8
0
6
CONTINUOUS
10
52.75
20
-79.25
11
35.25
21
-79.25
0
LINE
8
0
6
CONTINUOUS
10
35.25
20
-79.25
11
35.25
21
-95.75
0
LINE
8
0
6
CONTINUOUS
10
35.25
20
-78.75
11
52.75
21
-78.75
0
LINE
8
0
6
CONTINUOUS
10
52.75
20
-78.75
11
52.75
21
-62.25
0
LINE
8
0
6
CONTINUOUS
10
52.75
20
-62.25
11
35.25
21
-62.25
0
LINE
8
0
6
CONTINUOUS
10
35.25
20
-62.25
11
35.25
21
-78.75
0
LINE
8
0
6
CONTINUOUS
10
35.25
20
-61.75
11
52.75
21
-61.75
0
LINE
8
0
6
CONTINUOUS
10
52.75
20
-61.75
11
52.75
21
-45.25
0
LINE
8
0
6
CONTINUOUS
10
52.75
20
-45.25
11
35.25
21
-45.25
0
LINE
8
0
6
CONTINUOUS
10
35.25
20
-45.25
11
35.25
21
-61.75
0
LINE
8
0
6
CONTINUOUS
10
35.25
20
-44.75
11
52.75
21
-44.75
0
LINE
8
0
6
CONTINUOUS
10
52.75
20
-44.75
11
52.75
21
-28.25
0
LINE
8
0
6
CONTINUOUS
10
52.75
20
-28.25
11
35.25
21
-28.25
0
LINE
8
0
6
CONTINUOUS
10
35.25
20
-28.25
11
35.25
21
-44.75
0
LINE
8
0
6
CONTINUOUS
10
53.25
20
-89.75
11
70.75
21
-89.75
0
LINE
8
0
6
CONTINUOUS
10
70.75
20
-89.75
11
70.75
21
-73.25
0
LINE
8
0
6
CONTINUOUS
10
70.75
20
-73.25
11
53.25
21
-73.25
0
LINE
8
0
6
CONTINUOUS
10
53.25
20
-73.25
11
53.25
21
-89.75
0
LINE
8
0
6
CONTINUOUS
10
53.25
20
-72.75
11
70.75
21
-72.75
0
LINE
8
0
6
CONTINUOUS
10
70.75
20
-72.75
11
70.75
21
-56.25
0
LINE
8
0
6
CONTINUOUS
10
70.75
20
-56.25
11
53.25
21
-56.25
0
LINE
8
0
6
CONTINUOUS
10
53.25
20
-56.25
11
53.25
21
-72.75
0
LINE
8
0
6
CONTINUOUS
10
53.25
20
-55.75
11
70.75
21
-55.75
0
LINE
8
0
6
CONTINUOUS
10
70.75
20
-55.75
11
70.75
21
-39.25
0
LINE
8
0
6
CONTINUOUS
10
70.75
20
-39.25
11
53.25
21
-39.25
0
LINE
8
0
6
CONTINUOUS
10
53.25
20
-39.25
11
53.25
21
-55.75
0
LINE
8
0
6
CONTINUOUS
10
53.25
20
-38.75
11
70.75
21
-38.75
0
LINE
8
0
6
CONTINUOUS
10
70.75
20
-38.75
11
70.75
21
-22.25
0
LINE
8
0
6
CONTINUOUS
10
70.75
20
-22.25
11
53.25
21
-22.25
0
LINE
8
0
6
CONTINUOUS
10
53.25
20
-22.25
11
53.25
21
-38.75
0
LINE
8
0
6
CONTINUOUS
10
71.25
20
-84.75
11
88.75
21
-84.75
0
LINE
8
0
6
CONTINUOUS
10
88.75
20
-84.75
11
88.75
21
-68.25
0
LINE
8
0
6
CONTINUOUS
10
88.75
20
-68.25
11
71.25
21
-68.25
0
LINE
8
0
6
CONTINUOUS
10
71.25
20
-68.25
11
71.25
21
-84.75
0
LINE
8
0
6
CONTINUOUS
10
71.25
20
-67.75
11
88.75
21
-67.75
0
LINE
8
0
6
CONTINUOUS
10
88.75
20
-67.75
11
88.75
21
-51.25
0
LINE
8
0
6
CONTINUOUS
10
88.75
20
-51.25
11
71.25
21
-51.25
0
LINE
8
0
6
CONTINUOUS
10
71.25
20
-51.25
11
71.25
21
-67.75
0
LINE
8
0
6
CONTINUOUS
10
71.25
20
-50.75
11
88.75
21
-50.75
0
LINE
8
0
6
CONTINUOUS
10
88.75
20
-50.75
11
88.75
21
-34.25
0
LINE
8
0
6
CONTINUOUS
10
88.75
20
-34.25
11
71.25
21
-34.25
0
LINE
8
0
6
CONTINUOUS
10
71.25
20
-34.25
11
71.25
21
-50.75
0
LINE
8
0
6
CONTINUOUS
10
71.25
20
-33.75
11
88.75
21
-33.75
0
LINE
8
0
6
CONTINUOUS
10
88.75
20
-33.75
11
88.75
21
-17.25
0
LINE
8
0
6
CONTINUOUS
10
88.75
20
-17.25
11
71.25
21
-17.25
0
LINE
8
0
6
CONTINUOUS
10
71.25
20
-17.25
11
71.25
21
-33.75
0
LINE
8
0
6
CONTINUOUS
10
89.25
20
-89.75
11
106.75
21
-89.75
0
LINE
8
0
6
CONTINUOUS
10
106.75
20
-89.75
11
106.75
21
-73.25
0
LINE
8
0
6
CONTINUOUS
10
106.75
20
-73.25
11
89.25
21
-73.25
0
LINE
8
0
6
CONTINUOUS
10
89.25
20
-73.25
11
89.25
21
-89.75
0
LINE
8
0
6
CONTINUOUS
10
89.25
20
-72.75
11
106.75
21
-72.75
0
LINE
8
0
6
CONTINUOUS
10
106.75
20
-72.75
11
106.75
21
-56.25
0
LINE
8
0
6
CONTINUOUS
10
106.75
20
-56.25
11
89.25
21
-56.25
0
LINE
8
0
6
CONTINUOUS
10
89.25
20
-56.25
11
89.25
21
-72.75
0
LINE
8
0
6
CONTINUOUS
10
89.25
20
-55.75
11
106.75
21
-55.75
0
LINE
8
0
6
CONTINUOUS
10
106.75
20
-55.75
11
106.75
21
-39.25
0
LINE
8
0
6
CONTINUOUS
10
106.75
20
-39.25
11
89.25
21
-39.25
0
LINE
8
0
6
CONTINUOUS
10
89.25
20
-39.25
11
89.25
21
-55.75
0
LINE
8
0
6
CONTINUOUS
10
89.25
20
-38.75
11
106.75
21
-38.75
0
LINE
8
0
6
CONTINUOUS
10
106.75
20
-38.75
11
106.75
21
-22.25
0
LINE
8
0
6
CONTINUOUS
10
106.75
20
-22.25
11
89.25
21
-22.25
0
LINE
8
0
6
CONTINUOUS
10
89.25
20
-22.25
11
89.25
21
-38.75
0
LINE
8
0
6
CONTINUOUS
10
107.25
20
-92.75
11
124.75
21
-92.75
0
LINE
8
0
6
CONTINUOUS
10
124.75
20
-92.75
11
124.75
21
-76.25
0
LINE
8
0
6
CONTINUOUS
10
124.75
20
-76.25
11
107.25
21
-76.25
0
LINE
8
0
6
CONTINUOUS
10
107.25
20
-76.25
11
107.25
21
-92.75
0
LINE
8
0
6
CONTINUOUS
10
107.25
20
-75.75
11
124.75
21
-75.75
0
LINE
8
0
6
CONTINUOUS
10
124.75
20
-75.75
11
124.75
21
-59.25
0
LINE
8
0
6
CONTINUOUS
10
124.75
20
-59.25
11
107.25
21
-59.25
0
LINE
8
0
6
CONTINUOUS
10
107.25
20
-59.25
11
107.25
21
-75.75
0
LINE
8
0
6
CONTINUOUS
10
107.25
20
-58.75
11
124.75
21
-58.75
0
LINE
8
0
6
CONTINUOUS
10
124.75
20
-58.75
11
124.75
21
-42.25
0
LINE
8
0
6
CONTINUOUS
10
124.75
20
-42.25
11
107.25
21
-42.25
0
LINE
8
0
6
CONTINUOUS
10
107.25
20
-42.25
11
107.25
21
-58.75
0
LINE
8
0
6
CONTINUOUS
10
107.25
20
-41.75
11
124.75
21
-41.75
0
LINE
8
0
6
CONTINUOUS
10
124.75
20
-41.75
11
124.75
21
-25.25
0
LINE
8
0
6
CONTINUOUS
10
124.75
20
-25.25
11
107.25
21
-25.25
0
LINE
8
0
6
CONTINUOUS
10
107.25
20
-25.25
11
107.25
21
-41.75
0
LINE
8
0
6
CONTINUOUS
10
125.25
20
-75.75
11
142.75
21
-75.75
0
LINE
8
0
6
CONTINUOUS
10
142.75
20
-75.75
11
142.75
21
-59.25
0
LINE
8
0
6
CONTINUOUS
10
142.75
20
-59.25
11
125.25
21
-59.25
0
LINE
8
0
6
CONTINUOUS
10
125.25
20
-59.25
11
125.25
21
-75.75
0
LINE
8
0
6
CONTINUOUS
10
78.6184157
20
-106.5702313
11
95.6698919
21
-110.5068748
0
LINE
8
0
6
CONTINUOUS
10
95.6698919
20
-110.5068748
11
99.3815843
21
-94.4297687
0
LINE
8
0
6
CONTINUOUS
10
99.3815843
20
-94.4297687
11
82.3301081
21
-90.4931252
0
LINE
8
0
6
CONTINUOUS
10
82.3301081
20
-90.4931252
11
78.6184157
21
-106.5702313
0
LINE
8
0
6
CONTINUOUS
10
96.6681763
20
-110.8572355
11
112.7770113
21
-117.6950302
0
LINE
8
0
6
CONTINUOUS
10
112.7770113
20
-117.6950302
11
119.2240749
21
-102.5067001
0
LINE
8
0
6
CONTINUOUS
10
119.2240749
20
-102.5067001
11
103.1152399
21
-95.6689054
0
LINE
8
0
6
CONTINUOUS
10
103.1152399
20
-95.6689054
11
96.6681763
21
-110.8572355
0
LINE
8
0
6
CONTINUOUS
10
113.7406956
20
-118.3602545
11
127.3407499
21
-129.3733613
0
LINE
8
0
6
CONTINUOUS
10
127.3407499
20
-129.3733613
11
137.7245364
21
-116.5504529
0
LINE
8
0
6
CONTINUOUS
10
137.7245364
20
-116.5504529
11
124.1244821
21
-105.5373461
0
LINE
8
0
6
CONTINUOUS
10
124.1244821
20
-105.5373461
11
113.7406956
21
-118.3602545
0
LINE
8
0
6
CONTINUOUS
10
128.0805504
20
-130.1889248
11
138.8546262
21
-143.979113
0
LINE
8
0
6
CONTINUOUS
10
138.8546262
20
-143.979113
11
151.8568036
21
-133.8206986
0
LINE
8
0
6
CONTINUOUS
10
151.8568036
20
-133.8206986
11
141.0827278
21
-120.0305104
0
LINE
8
0
6
CONTINUOUS
10
141.0827278
20
-120.0305104
11
128.0805504
21
-130.1889248
0
ENDSEC
0
EOF