0
SECTION
2
HEADER
9
$INSUNITS
70
4
0
ENDSEC
0
SECTION
2
TABLES
0
TABLE
2
LTYPE
0
LTYPE
72
65
70
0
2
CONTINUOUS
3
______
73
0
40
0
0
LTYPE
72
65
70
0
2
DASHED
3
_ _ _ 
73
2
40
7.5
49
5
49
-2.5
0
LTYPE
72
65
70
0
2
DOTTED
3
. . . 
73
2
40
1.5
49
0.5
49
-1
0
ENDTAB
0
TABLE
2
LAYER
0
ENDTAB
0
ENDSEC
0
SECTION
2
ENTITIES
0
LINE
8
0
6
CONTINUOUS
10
-11
20
-10.5
11
29
21
-10.5
0
LINE
8
0
6
CONTINUOUS
10
-11
20
-10.5
11
-11
21
61.5
0
LINE
8
0
6
CONTINUOUS
10
-11
20
61.5
11
25
21
61.5
0
LINE
8
0
6
CONTINUOUS
10
29
20
-10.5
11
29
21
-4.5
0
LINE
8
0
6
CONTINUOUS
10
29
20
-4.5
11
47
21
-4.5
0
LINE
8
0
6
CONTINUOUS
10
47
20
-4.5
11
47
21
0.5
0
LINE
8
0
6
CONTINUOUS
10
25
20
67.5
11
43
21
67.5
0
LINE
8
0
6
CONTINUOUS
10
25
20
67.5
11
25
21
61.5
0
LINE
8
0
6
CONTINUOUS
10
47
20
0.5
11
61
21
0.5
0
LINE
8
0
6
CONTINUOUS
10
65
20
67.5
11
65
21
72.5
0
LINE
8
0
6
CONTINUOUS
10
65
20
72.5
11
43
21
72.5
0
LINE
8
0
6
CONTINUOUS
10
43
20
72.5
11
43
21
67.5
0
LINE
8
0
6
CONTINUOUS
10
72.8592757
20
-4.5
11
79
21
-4.5
0
LINE
8
0
6
CONTINUOUS
10
61
20
0.5
11
61
21
-1.7620705
0
LINE
8
0
6
CONTINUOUS
10
83
20
64.5
11
83
21
67.5
0
LINE
8
0
6
CONTINUOUS
10
65
20
67.5
11
83
21
67.5
0
LINE
8
0
6
CONTINUOUS
10
81.2978331
20
-7.5
11
101
21
-7.5
0
LINE
8
0
6
CONTINUOUS
10
101
20
-7.5
11
101
21
0.5
0
LINE
8
0
6
CONTINUOUS
10
79
20
-4.5
11
79
21
-6.5246277
0
LINE
8
0
6
CONTINUOUS
10
101
20
21.5
11
101
21
64.5
0
LINE
8
0
6
CONTINUOUS
10
83
20
64.5
11
101
21
64.5
0
LINE
8
0
6
CONTINUOUS
10
101
20
0.5
11
119
21
0.5
0
LINE
8
0
6
CONTINUOUS
10
119
20
0.5
11
119
21
21.5
0
LINE
8
0
6
CONTINUOUS
10
101
20
21.5
11
119
21
21.5
0
LINE
8
0
6
CONTINUOUS
10
49.9199432
20
-20.7564241
11
69.3509946
21
-25.2424358
0
LINE
8
0
6
CONTINUOUS
10
76.0713079
20
-5.2814716
11
76.0800568
21
-5.2435759
0
LINE
8
0
6
CONTINUOUS
10
76.0800568
20
-5.2435759
11
72.8592757
21
-4.5
0
LINE
8
0
6
CONTINUOUS
10
61
20
-1.7620705
11
54.6439154
21
-0.2946527
0
LINE
8
0
6
CONTINUOUS
10
54.6439154
20
-0.2946527
11
49.9199432
21
-20.7564241
0
LINE
8
0
6
CONTINUOUS
10
69.3509946
20
-25.2424358
11
85.905643
21
-32.2694672
0
LINE
8
0
6
CONTINUOUS
10
93.4485049
20
-20.2364116
11
96.1743558
21
-13.8147093
0
LINE
8
0
6
CONTINUOUS
10
96.1743558
20
-13.8147093
11
81.2978331
21
-7.5
0
LINE
8
0
6
CONTINUOUS
10
79
20
-6.5246277
11
76.0713079
21
-5.2814716
0
LINE
8
0
6
CONTINUOUS
10
85.905643
20
-32.2694672
11
100.0049025
21
-43.6868223
0
LINE
8
0
6
CONTINUOUS
10
112.4450036
20
-31.7360355
11
114.8890857
21
-28.7178454
0
LINE
8
0
6
CONTINUOUS
10
114.8890857
20
-28.7178454
11
97.7918745
21
-14.8727968
0
LINE
8
0
6
CONTINUOUS
10
97.7918745
20
-14.8727968
11
93.4485049
21
-20.2364116
0
LINE
8
0
6
CONTINUOUS
10
100.0049025
20
-43.6868223
11
112.4668403
21
-59.6373755
0
LINE
8
0
6
CONTINUOUS
10
112.4668403
20
-59.6373755
11
129.0150661
21
-46.7084845
0
LINE
8
0
6
CONTINUOUS
10
129.0150661
20
-46.7084845
11
115.4705137
21
-29.3722479
0
LINE
8
0
6
CONTINUOUS
10
115.4705137
20
-29.3722479
11
112.4450036
21
-31.7360355
0
ENDSEC
0
EOF