0
SECTION
2
HEADER
9
$INSUNITS
70
4
0
ENDSEC
0
SECTION
2
TABLES
0
TABLE
2
LTYPE
0
LTYPE
72
65
70
0
2
CONTINUOUS
3
______
73
0
40
0
0
LTYPE
72
65
70
0
2
DASHED
3
_ _ _ 
73
2
40
7.5
49
5
49
-2.5
0
LTYPE
72
65
70
0
2
DOTTED
3
. . . 
73
2
40
1.5
49
0.5
49
-1
0
ENDTAB
0
TABLE
2
LAYER
0
ENDTAB
0
ENDSEC
0
SECTION
2
ENTITIES
0
LINE
8
0
6
CONTINUOUS
10
15
20
-98
11
55
21
-98
0
LINE
8
0
6
CONTINUOUS
10
15
20
-98
11
15
21
-26
0
LINE
8
0
6
CONTINUOUS
10
15
20
-26
11
51
21
-26
0
LINE
8
0
6
CONTINUOUS
10
55
20
-98
11
55
21
-92
0
LINE
8
0
6
CONTINUOUS
10
55
20
-92
11
73
21
-92
0
LINE
8
0
6
CONTINUOUS
10
73
20
-92
11
73
21
-87
0
LINE
8
0
6
CONTINUOUS
10
51
20
-20
11
69
21
-20
0
LINE
8
0
6
CONTINUOUS
10
51
20
-20
11
51
21
-26
0
LINE
8
0
6
CONTINUOUS
10
73
20
-87
11
87
21
-87
0
LINE
8
0
6
CONTINUOUS
10
91
20
-20
11
91
21
-15
0
LINE
8
0
6
CONTINUOUS
10
91
20
-15
11
69
21
-15
0
LINE
8
0
6
CONTINUOUS
10
69
20
-15
11
69
21
-20
0
LINE
8
0
6
CONTINUOUS
10
98.8592757
20
-92
11
105
21
-92
0
LINE
8
0
6
CONTINUOUS
10
87
20
-87
11
87
21
-89.2620705
0
LINE
8
0
6
CONTINUOUS
10
109
20
-23
11
109
21
-20
0
LINE
8
0
6
CONTINUOUS
10
91
20
-20
11
109
21
-20
0
LINE
8
0
6
CONTINUOUS
10
107.2978331
20
-95
11
144.7021669
21
-95
0
LINE
8
0
6
CONTINUOUS
10
105
20
-92
11
105
21
-94.0246277
0
LINE
8
0
6
CONTINUOUS
10
109
20
-23
11
143
21
-23
0
LINE
8
0
6
CONTINUOUS
10
197
20
-98
11
237
21
-98
0
LINE
8
0
6
CONTINUOUS
10
237
20
-98
11
237
21
-26
0
LINE
8
0
6
CONTINUOUS
10
201
20
-26
11
237
21
-26
0
LINE
8
0
6
CONTINUOUS
10
197
20
-92
11
197
21
-98
0
LINE
8
0
6
CONTINUOUS
10
179
20
-92
11
197
21
-92
0
LINE
8
0
6
CONTINUOUS
10
179
20
-87
11
179
21
-92
0
LINE
8
0
6
CONTINUOUS
10
201
20
-26
11
201
21
-20
0
LINE
8
0
6
CONTINUOUS
10
183
20
-20
11
201
21
-20
0
LINE
8
0
6
CONTINUOUS
10
165
20
-87
11
179
21
-87
0
LINE
8
0
6
CONTINUOUS
10
183
20
-20
11
183
21
-15
0
LINE
8
0
6
CONTINUOUS
10
183
20
-15
11
161
21
-15
0
LINE
8
0
6
CONTINUOUS
10
161
20
-15
11
161
21
-20
0
LINE
8
0
6
CONTINUOUS
10
147
20
-92
11
153.1407243
21
-92
0
LINE
8
0
6
CONTINUOUS
10
165
20
-89.2620705
11
165
21
-87
0
LINE
8
0
6
CONTINUOUS
10
143
20
-20
11
161
21
-20
0
LINE
8
0
6
CONTINUOUS
10
143
20
-20
11
143
21
-23
0
LINE
8
0
6
CONTINUOUS
10
147
20
-94.0246277
11
147
21
-92
0
LINE
8
0
6
CONTINUOUS
10
75.9199432
20
-108.2564241
11
95.3509946
21
-112.7424358
0
LINE
8
0
6
CONTINUOUS
10
102.0713079
20
-92.7814716
11
102.0800568
21
-92.7435759
0
LINE
8
0
6
CONTINUOUS
10
102.0800568
20
-92.7435759
11
98.8592757
21
-92
0
LINE
8
0
6
CONTINUOUS
10
87
20
-89.2620705
11
80.6439154
21
-87.7946527
0
LINE
8
0
6
CONTINUOUS
10
80.6439154
20
-87.7946527
11
75.9199432
21
-108.2564241
0
LINE
8
0
6
CONTINUOUS
10
95.3509946
20
-112.7424358
11
109.1723793
21
-118.6092656
0
LINE
8
0
6
CONTINUOUS
10
119.4485049
20
-107.7364116
11
122.1743558
21
-101.3147093
0
LINE
8
0
6
CONTINUOUS
10
122.1743558
20
-101.3147093
11
107.2978331
21
-95
0
LINE
8
0
6
CONTINUOUS
10
105
20
-94.0246277
11
102.0713079
21
-92.7814716
0
LINE
8
0
6
CONTINUOUS
10
126
20
-131.1828524
11
126.0049025
21
-131.1868223
0
LINE
8
0
6
CONTINUOUS
10
126
20
-104.1609016
11
123.7918745
21
-102.3727968
0
LINE
8
0
6
CONTINUOUS
10
123.7918745
20
-102.3727968
11
119.4485049
21
-107.7364116
0
LINE
8
0
6
CONTINUOUS
10
126.0049025
20
-131.1868223
11
138.4668403
21
-147.1373755
0
LINE
8
0
6
CONTINUOUS
10
138.4668403
20
-147.1373755
11
155.0150661
21
-134.2084845
0
LINE
8
0
6
CONTINUOUS
10
155.0150661
20
-134.2084845
11
142.8276207
21
-118.6092656
0
LINE
8
0
6
CONTINUOUS
10
156.6490054
20
-112.7424358
11
176.0800568
21
-108.2564241
0
LINE
8
0
6
CONTINUOUS
10
176.0800568
20
-108.2564241
11
171.3560846
21
-87.7946527
0
LINE
8
0
6
CONTINUOUS
10
171.3560846
20
-87.7946527
11
165
21
-89.2620705
0
LINE
8
0
6
CONTINUOUS
10
153.1407243
20
-92
11
149.9199432
21
-92.7435759
0
LINE
8
0
6
CONTINUOUS
10
149.9199432
20
-92.7435759
11
149.9286921
21
-92.7814716
0
LINE
8
0
6
CONTINUOUS
10
142.8276207
20
-118.6092656
11
156.6490054
21
-112.7424358
0
LINE
8
0
6
CONTINUOUS
10
144.7021669
20
-95
11
129.8256442
21
-101.3147093
0
LINE
8
0
6
CONTINUOUS
10
149.9286921
20
-92.7814716
11
147
21
-94.0246277
0
LINE
8
0
6
CONTINUOUS
10
129.8256442
20
-101.3147093
11
132.5514951
21
-107.7364116
0
LINE
8
0
6
CONTINUOUS
10
125.9950975
20
-131.1868223
11
126
21
-131.1828524
0
LINE
8
0
6
CONTINUOUS
10
132.5514951
20
-107.7364116
11
128.2081255
21
-102.3727968
0
LINE
8
0
6
CONTINUOUS
10
128.2081255
20
-102.3727968
11
126
21
-104.1609016
0
LINE
8
0
6
CONTINUOUS
10
113.5331597
20
-147.1373755
11
125.9950975
21
-131.1868223
0
LINE
8
0
6
CONTINUOUS
10
109.1723793
20
-118.6092656
11
96.9849339
21
-134.2084845
0
LINE
8
0
6
CONTINUOUS
10
96.9849339
20
-134.2084845
11
113.5331597
21
-147.1373755
0
ENDSEC
0
EOF